<svg width="600" height="600" xmlns="http://www.w3.org/2000/svg" xmlns:xlink="http://www.w3.org/1999/xlink">
 <defs>
  <filter height="100%" width="100%" y="0%" x="0%" filterUnits="objectBoundingBox" id="alpha"/>
  <mask id="mask0">
   <g id="svg_1" filter="url(#alpha)">
    <rect id="svg_2" fill="rgb(0%,0%,0%)" fill-opacity="0.10196" height="600" width="754" y="0" x="0"/>
   </g>
  </mask>
  <clipPath id="clip1">
   <rect id="svg_3" height="600" width="754" y="0" x="0"/>
  </clipPath>
  <g clip-path="url(#clip1)" id="surface5">
   <path id="svg_4" fill-rule="nonzero" fill="rgb(42.352941%,38.823529%,100%)" d="m442.125,101.41797c-47.70312,-1.66016 -93.14062,-17.07813 -136.52344,-33.94922c-43.38281,-16.87109 -86.35156,-35.56641 -132.91015,-44.50391c-29.94922,-5.74609 -64.19922,-6.55859 -88.32032,9.51563c-23.22656,15.49609 -30.73046,42.17578 -34.76171,66.95703c-3.03516,18.64453 -4.82032,38.26172 3.5039,55.71484c5.76953,12.11719 16.02344,22.30079 23.10547,33.94922c24.66797,40.38282 7.23828,90.1836 -19.49609,129.61328c-12.52735,18.50391 -27.08594,36.16407 -36.75782,55.83985c-9.66796,19.67578 -14.14843,42.25 -5.6875,62.33984c8.39454,19.92578 28.39063,34.86328 50.04297,45.37891c43.9961,21.36328 95.81641,27.47656 146.38672,30.9375c111.90625,7.66797 224.40235,4.34765 336.60156,1.02344c41.52735,-1.23047 83.22657,-2.47657 124.07422,-8.90625c22.6875,-3.57032 46.10547,-9.23047 62.57813,-22.91407c20.90234,-17.36718 26.08203,-46.77734 12.07812,-68.54687c-23.5039,-36.52344 -88.44531,-45.59375 -104.89453,-84.79688c-9.03906,-21.57031 0.25,-45.60156 13.38281,-65.61718c28.1836,-42.92188 75.42188,-80.58204 77.91407,-129.64454c1.71093,-33.70703 -21.00782,-67.44531 -56.11719,-83.39453c-36.80078,-16.77734 -87.85156,-14.64843 -114.98828,13.01953c-27.96485,28.50782 -77.09375,39.44532 -119.21094,37.98438zm0,0"/>
  </g>
  <mask id="mask1">
   <g id="svg_5" filter="url(#alpha)">
    <rect id="svg_6" fill="rgb(0%,0%,0%)" fill-opacity="0.10196" height="600" width="754" y="0" x="0"/>
   </g>
  </mask>
  <clipPath id="clip2">
   <rect id="svg_7" height="600" width="754" y="0" x="0"/>
  </clipPath>
  <g clip-path="url(#clip2)" id="surface8">
   <path id="svg_8" fill-rule="nonzero" fill="rgb(0%,0%,0%)" d="m43.60547,449.48438c0,0 -17.26953,32.75781 2.62891,63.01562l273.8125,59.41016c0,0 -16.9961,-26.09375 0.8789,-62.31641l-277.32031,-60.10937zm0,0"/>
  </g>
  <mask id="mask2">
   <g id="svg_9" filter="url(#alpha)">
    <rect id="svg_10" fill="rgb(0%,0%,0%)" fill-opacity="0.10196" height="600" width="754" y="0" x="0"/>
   </g>
  </mask>
  <clipPath id="clip3">
   <rect id="svg_11" height="600" width="754" y="0" x="0"/>
  </clipPath>
  <g clip-path="url(#clip3)" id="surface11">
   <path id="svg_12" fill-rule="nonzero" fill="rgb(0%,0%,0%)" d="m51.76172,460.83984c0,0 -9.86719,23.97266 0,39.48438"/>
  </g>
  <mask id="mask3">
   <g id="svg_13" filter="url(#alpha)">
    <rect id="svg_14" fill="rgb(0%,0%,0%)" fill-opacity="0.10196" height="600" width="754" y="0" x="0"/>
   </g>
  </mask>
  <clipPath id="clip4">
   <rect id="svg_15" height="600" width="754" y="0" x="0"/>
  </clipPath>
  <g clip-path="url(#clip4)" id="surface14">
   <path id="svg_16" fill-rule="nonzero" fill="rgb(0%,0%,0%)" d="m320.04688,571.91016l152.86328,-65.3125c0,0 8.55078,1.84375 3.02343,8.11718c-5.52734,6.27344 -152.9375,63.46875 -152.9375,63.46875l-276.76171,-65.68359l273.8125,59.41016zm0,0"/>
  </g>
  <mask id="mask4">
   <g id="svg_17" filter="url(#alpha)">
    <rect id="svg_18" fill="rgb(0%,0%,0%)" fill-opacity="0.10196" height="600" width="754" y="0" x="0"/>
   </g>
  </mask>
  <clipPath id="clip5">
   <rect id="svg_19" height="600" width="754" y="0" x="0"/>
  </clipPath>
  <g clip-path="url(#clip5)" id="surface17">
   <path id="svg_20" fill-rule="nonzero" fill="rgb(0%,0%,0%)" d="m307.51953,516.19141c0,0 -14.74219,17.71093 0,44.28125"/>
  </g>
  <mask id="mask5">
   <g id="svg_21" filter="url(#alpha)">
    <rect id="svg_22" fill="rgb(0%,0%,0%)" fill-opacity="0.10196" height="600" width="754" y="0" x="0"/>
   </g>
  </mask>
  <clipPath id="clip6">
   <rect id="svg_23" height="600" width="754" y="0" x="0"/>
  </clipPath>
  <g clip-path="url(#clip6)" id="surface20">
   <path id="svg_24" fill-rule="nonzero" fill="rgb(0%,0%,0%)" d="m312.76563,537.98047l66.12109,-22.08984l0.23047,0.70312l-66.11719,22.08594l-0.23437,-0.69922zm0,0"/>
  </g>
  <mask id="mask6">
   <g id="svg_25" filter="url(#alpha)">
    <rect id="svg_26" fill="rgb(0%,0%,0%)" fill-opacity="0.10196" height="600" width="754" y="0" x="0"/>
   </g>
  </mask>
  <clipPath id="clip7">
   <rect id="svg_27" height="600" width="754" y="0" x="0"/>
  </clipPath>
  <g clip-path="url(#clip7)" id="surface23">
   <path id="svg_28" fill-rule="nonzero" fill="rgb(0%,0%,0%)" d="m312.74219,543.92188l79.38672,-30.22657l0.26172,0.6875l-79.38282,30.22657l-0.26562,-0.6875zm0,0"/>
  </g>
  <mask id="mask7">
   <g id="svg_29" filter="url(#alpha)">
    <rect id="svg_30" fill="rgb(0%,0%,0%)" fill-opacity="0.10196" height="600" width="754" y="0" x="0"/>
   </g>
  </mask>
  <clipPath id="clip8">
   <rect id="svg_31" height="600" width="754" y="0" x="0"/>
  </clipPath>
  <g clip-path="url(#clip8)" id="surface26">
   <path id="svg_32" fill-rule="nonzero" fill="rgb(0%,0%,0%)" d="m313.1875,550.92578l91.10156,-37.33594l0.28125,0.67969l-91.10547,37.33985l-0.27734,-0.6836zm0,0"/>
  </g>
  <mask id="mask8">
   <g id="svg_33" filter="url(#alpha)">
    <rect id="svg_34" fill="rgb(0%,0%,0%)" fill-opacity="0.10196" height="600" width="754" y="0" x="0"/>
   </g>
  </mask>
  <clipPath id="clip9">
   <rect id="svg_35" height="600" width="754" y="0" x="0"/>
  </clipPath>
  <g clip-path="url(#clip9)" id="surface29">
   <path id="svg_36" fill-rule="nonzero" fill="rgb(0%,0%,0%)" d="m314.25,557.10156l103.26563,-46.71093l0.30468,0.67187l-103.26562,46.71094l-0.30469,-0.67188zm0,0"/>
  </g>
  <mask id="mask9">
   <g id="svg_37" filter="url(#alpha)">
    <rect id="svg_38" fill="rgb(0%,0%,0%)" fill-opacity="0.10196" height="600" width="754" y="0" x="0"/>
   </g>
  </mask>
  <clipPath id="clip10">
   <rect id="svg_39" height="600" width="754" y="0" x="0"/>
  </clipPath>
  <g clip-path="url(#clip10)" id="surface32">
   <path id="svg_40" fill-rule="nonzero" fill="rgb(0%,0%,0%)" d="m315.06641,560.10938l113.5625,-49.70313l0.29297,0.67578l-113.5586,49.70313l-0.29687,-0.67578zm0,0"/>
  </g>
  <mask id="mask10">
   <g id="svg_41" filter="url(#alpha)">
    <rect id="svg_42" fill="rgb(0%,0%,0%)" fill-opacity="0.10196" height="600" width="754" y="0" x="0"/>
   </g>
  </mask>
  <clipPath id="clip11">
   <rect id="svg_43" height="600" width="754" y="0" x="0"/>
  </clipPath>
  <g clip-path="url(#clip11)" id="surface35">
   <path id="svg_44" fill-rule="nonzero" fill="rgb(0%,0%,0%)" d="m316.78125,565.15625l136.15234,-58.88281l0.29297,0.67578l-136.15234,58.88281l-0.29297,-0.67578zm0,0"/>
  </g>
  <mask id="mask11">
   <g id="svg_45" filter="url(#alpha)">
    <rect id="svg_46" fill="rgb(0%,0%,0%)" fill-opacity="0.30196" height="600" width="754" y="0" x="0"/>
   </g>
  </mask>
  <clipPath id="clip12">
   <rect id="svg_47" height="600" width="754" y="0" x="0"/>
  </clipPath>
  <g clip-path="url(#clip12)" id="surface38">
   <path id="svg_48" fill-rule="nonzero" fill="rgb(100%,100%,100%)" d="m112.19922,453.09375l129.72266,-27.30859l79.02734,15.1289l-106.29688,34.32032l-102.45312,-22.14063zm0,0"/>
  </g>
  <mask id="mask12">
   <g id="svg_49" filter="url(#alpha)">
    <rect id="svg_50" fill="rgb(0%,0%,0%)" fill-opacity="0.10196" height="600" width="754" y="0" x="0"/>
   </g>
  </mask>
  <clipPath id="clip13">
   <rect id="svg_51" height="600" width="754" y="0" x="0"/>
  </clipPath>
  <g clip-path="url(#clip13)" id="surface41">
   <path id="svg_52" fill-rule="nonzero" fill="rgb(0%,0%,0%)" d="m116.76172,378.5c0,0 -17.27344,32.76172 2.625,63.01953l273.8125,59.41016c0,0 -16.98828,-26.11719 0.90625,-62.32422l-86.58594,-18.76953l-190.75781,-41.33594zm0,0"/>
  </g>
  <mask id="mask13">
   <g id="svg_53" filter="url(#alpha)">
    <rect id="svg_54" fill="rgb(0%,0%,0%)" fill-opacity="0.10196" height="600" width="754" y="0" x="0"/>
   </g>
  </mask>
  <clipPath id="clip14">
   <rect id="svg_55" height="600" width="754" y="0" x="0"/>
  </clipPath>
  <g clip-path="url(#clip14)" id="surface44">
   <path id="svg_56" fill-rule="nonzero" fill="rgb(0%,0%,0%)" d="m124.94531,389.85938c0,0 -9.86328,23.96484 0,39.48437"/>
  </g>
  <mask id="mask14">
   <g id="svg_57" filter="url(#alpha)">
    <rect id="svg_58" fill="rgb(0%,0%,0%)" fill-opacity="0.10196" height="600" width="754" y="0" x="0"/>
   </g>
  </mask>
  <clipPath id="clip15">
   <rect id="svg_59" height="600" width="754" y="0" x="0"/>
  </clipPath>
  <g clip-path="url(#clip15)" id="surface47">
   <path id="svg_60" fill-rule="nonzero" fill="rgb(0%,0%,0%)" d="m393.23047,500.92969l152.87109,-65.3125c0,0 8.54297,1.84375 3.01563,8.11719c-5.53125,6.27343 -152.9375,63.46875 -152.9375,63.46875l-276.76172,-65.6836l273.8125,59.41016zm0,0"/>
  </g>
  <mask id="mask15">
   <g id="svg_61" filter="url(#alpha)">
    <rect id="svg_62" fill="rgb(0%,0%,0%)" fill-opacity="0.10196" height="600" width="754" y="0" x="0"/>
   </g>
  </mask>
  <clipPath id="clip16">
   <rect id="svg_63" height="600" width="754" y="0" x="0"/>
  </clipPath>
  <g clip-path="url(#clip16)" id="surface50">
   <path id="svg_64" fill-rule="nonzero" fill="rgb(0%,0%,0%)" d="m380.69922,445.21094c0,0 -14.73828,17.71094 0,44.28125"/>
  </g>
  <mask id="mask16">
   <g id="svg_65" filter="url(#alpha)">
    <rect id="svg_66" fill="rgb(0%,0%,0%)" fill-opacity="0.10196" height="600" width="754" y="0" x="0"/>
   </g>
  </mask>
  <clipPath id="clip17">
   <rect id="svg_67" height="600" width="754" y="0" x="0"/>
  </clipPath>
  <g clip-path="url(#clip17)" id="surface53">
   <path id="svg_68" fill-rule="nonzero" fill="rgb(0%,0%,0%)" d="m385.95313,467.00781l66.11718,-22.08984l0.23438,0.69922l-66.1211,22.08984l-0.23046,-0.69922zm0,0"/>
  </g>
  <mask id="mask17">
   <g id="svg_69" filter="url(#alpha)">
    <rect id="svg_70" fill="rgb(0%,0%,0%)" fill-opacity="0.10196" height="600" width="754" y="0" x="0"/>
   </g>
  </mask>
  <clipPath id="clip18">
   <rect id="svg_71" height="600" width="754" y="0" x="0"/>
  </clipPath>
  <g clip-path="url(#clip18)" id="surface56">
   <path id="svg_72" fill-rule="nonzero" fill="rgb(0%,0%,0%)" d="m385.94141,472.94531l79.38281,-30.22656l0.26172,0.6875l-79.38281,30.22656l-0.26172,-0.6875zm0,0"/>
  </g>
  <mask id="mask18">
   <g id="svg_73" filter="url(#alpha)">
    <rect id="svg_74" fill="rgb(0%,0%,0%)" fill-opacity="0.10196" height="600" width="754" y="0" x="0"/>
   </g>
  </mask>
  <clipPath id="clip19">
   <rect id="svg_75" height="600" width="754" y="0" x="0"/>
  </clipPath>
  <g clip-path="url(#clip19)" id="surface59">
   <path id="svg_76" fill-rule="nonzero" fill="rgb(0%,0%,0%)" d="m386.37109,479.94141l91.10547,-37.33985l0.27735,0.6836l-91.10157,37.33593l-0.28125,-0.67968zm0,0"/>
  </g>
  <mask id="mask19">
   <g id="svg_77" filter="url(#alpha)">
    <rect id="svg_78" fill="rgb(0%,0%,0%)" fill-opacity="0.10196" height="600" width="754" y="0" x="0"/>
   </g>
  </mask>
  <clipPath id="clip20">
   <rect id="svg_79" height="600" width="754" y="0" x="0"/>
  </clipPath>
  <g clip-path="url(#clip20)" id="surface62">
   <path id="svg_80" fill-rule="nonzero" fill="rgb(0%,0%,0%)" d="m387.44531,486.11328l103.26563,-46.70703l0.30469,0.67188l-103.26954,46.70703l-0.30078,-0.67188zm0,0"/>
  </g>
  <mask id="mask20">
   <g id="svg_81" filter="url(#alpha)">
    <rect id="svg_82" fill="rgb(0%,0%,0%)" fill-opacity="0.10196" height="600" width="754" y="0" x="0"/>
   </g>
  </mask>
  <clipPath id="clip21">
   <rect id="svg_83" height="600" width="754" y="0" x="0"/>
  </clipPath>
  <g clip-path="url(#clip21)" id="surface65">
   <path id="svg_84" fill-rule="nonzero" fill="rgb(0%,0%,0%)" d="m388.25,489.11328l113.5625,-49.70312l0.29297,0.67578l-113.55859,49.70312l-0.29688,-0.67578zm0,0"/>
  </g>
  <mask id="mask21">
   <g id="svg_85" filter="url(#alpha)">
    <rect id="svg_86" fill="rgb(0%,0%,0%)" fill-opacity="0.10196" height="600" width="754" y="0" x="0"/>
   </g>
  </mask>
  <clipPath id="clip22">
   <rect id="svg_87" height="600" width="754" y="0" x="0"/>
  </clipPath>
  <g clip-path="url(#clip22)" id="surface68">
   <path id="svg_88" fill-rule="nonzero" fill="rgb(0%,0%,0%)" d="m389.96875,494.16016l136.15234,-58.88282l0.29297,0.67969l-136.15234,58.87891l-0.29297,-0.67578zm0,0"/>
  </g>
  <mask id="mask22">
   <g id="svg_89" filter="url(#alpha)">
    <rect id="svg_90" fill="rgb(0%,0%,0%)" fill-opacity="0.45098" height="600" width="754" y="0" x="0"/>
   </g>
  </mask>
  <clipPath id="clip23">
   <rect id="svg_91" height="600" width="754" y="0" x="0"/>
  </clipPath>
  <g clip-path="url(#clip23)" id="surface71">
   <path id="svg_92" fill-rule="nonzero" fill="rgb(100%,100%,100%)" d="m185.39063,382.10938l129.71875,-27.30469l79.02734,15.1289l-106.29688,34.31641l-102.44921,-22.14062zm0,0"/>
  </g>
  <mask id="mask23">
   <g id="svg_93" filter="url(#alpha)">
    <rect id="svg_94" fill="rgb(0%,0%,0%)" fill-opacity="0.10196" height="600" width="754" y="0" x="0"/>
   </g>
  </mask>
  <clipPath id="clip24">
   <rect id="svg_95" height="600" width="754" y="0" x="0"/>
  </clipPath>
  <g clip-path="url(#clip24)" id="surface74">
   <path id="svg_96" fill-rule="nonzero" fill="rgb(0%,0%,0%)" d="m123.74219,297.30078c0,0 -17.29688,32.75781 2.60156,63.01563l273.8125,59.41015c0,0 -16.99609,-26.11718 0.90234,-62.3164l-277.3164,-60.10938zm0,0"/>
  </g>
  <mask id="mask24">
   <g id="svg_97" filter="url(#alpha)">
    <rect id="svg_98" fill="rgb(0%,0%,0%)" fill-opacity="0.10196" height="600" width="754" y="0" x="0"/>
   </g>
  </mask>
  <clipPath id="clip25">
   <rect id="svg_99" height="600" width="754" y="0" x="0"/>
  </clipPath>
  <g clip-path="url(#clip25)" id="surface77">
   <path id="svg_100" fill-rule="nonzero" fill="rgb(0%,0%,0%)" d="m131.90234,308.65625c0,0 -9.87109,23.97266 0,39.48438"/>
  </g>
  <mask id="mask25">
   <g id="svg_101" filter="url(#alpha)">
    <rect id="svg_102" fill="rgb(0%,0%,0%)" fill-opacity="0.10196" height="600" width="754" y="0" x="0"/>
   </g>
  </mask>
  <clipPath id="clip26">
   <rect id="svg_103" height="600" width="754" y="0" x="0"/>
  </clipPath>
  <g clip-path="url(#clip26)" id="surface80">
   <path id="svg_104" fill-rule="nonzero" fill="rgb(0%,0%,0%)" d="m400.1875,419.72656l152.86328,-49.07812c0,0 8.55078,1.84765 3.02344,8.11719c-5.52734,6.27343 -152.9375,47.23437 -152.9375,47.23437l-276.76172,-65.68359l273.8125,59.41015zm0,0"/>
  </g>
  <mask id="mask26">
   <g id="svg_105" filter="url(#alpha)">
    <rect id="svg_106" fill="rgb(0%,0%,0%)" fill-opacity="0.10196" height="600" width="754" y="0" x="0"/>
   </g>
  </mask>
  <clipPath id="clip27">
   <rect id="svg_107" height="600" width="754" y="0" x="0"/>
  </clipPath>
  <g clip-path="url(#clip27)" id="surface83">
   <path id="svg_108" fill-rule="nonzero" fill="rgb(0%,0%,0%)" d="m387.65625,364.00781c0,0 -14.73828,17.71094 0,44.28125"/>
  </g>
  <mask id="mask27">
   <g id="svg_109" filter="url(#alpha)">
    <rect id="svg_110" fill="rgb(0%,0%,0%)" fill-opacity="0.10196" height="600" width="754" y="0" x="0"/>
   </g>
  </mask>
  <clipPath id="clip28">
   <rect id="svg_111" height="600" width="754" y="0" x="0"/>
  </clipPath>
  <g clip-path="url(#clip28)" id="surface86">
   <path id="svg_112" fill-rule="nonzero" fill="rgb(0%,0%,0%)" d="m392.91016,385.80078l66.12109,-22.08594l0.23438,0.69922l-66.1211,22.08985l-0.23437,-0.70313zm0,0"/>
  </g>
  <mask id="mask28">
   <g id="svg_113" filter="url(#alpha)">
    <rect id="svg_114" fill="rgb(0%,0%,0%)" fill-opacity="0.10196" height="600" width="754" y="0" x="0"/>
   </g>
  </mask>
  <clipPath id="clip29">
   <rect id="svg_115" height="600" width="754" y="0" x="0"/>
  </clipPath>
  <g clip-path="url(#clip29)" id="surface89">
   <path id="svg_116" fill-rule="nonzero" fill="rgb(0%,0%,0%)" d="m392.89453,391.74219l79.38672,-30.22656l0.26172,0.6914l-79.38672,30.22656l-0.26172,-0.6914zm0,0"/>
  </g>
  <mask id="mask29">
   <g id="svg_117" filter="url(#alpha)">
    <rect id="svg_118" fill="rgb(0%,0%,0%)" fill-opacity="0.10196" height="600" width="754" y="0" x="0"/>
   </g>
  </mask>
  <clipPath id="clip30">
   <rect id="svg_119" height="600" width="754" y="0" x="0"/>
  </clipPath>
  <g clip-path="url(#clip30)" id="surface92">
   <path id="svg_120" fill-rule="nonzero" fill="rgb(0%,0%,0%)" d="m393.32031,398.74219l91.10547,-37.33985l0.27735,0.6836l-91.10157,37.33984l-0.28125,-0.68359zm0,0"/>
  </g>
  <mask id="mask30">
   <g id="svg_121" filter="url(#alpha)">
    <rect id="svg_122" fill="rgb(0%,0%,0%)" fill-opacity="0.10196" height="600" width="754" y="0" x="0"/>
   </g>
  </mask>
  <clipPath id="clip31">
   <rect id="svg_123" height="600" width="754" y="0" x="0"/>
  </clipPath>
  <g clip-path="url(#clip31)" id="surface95">
   <path id="svg_124" fill-rule="nonzero" fill="rgb(0%,0%,0%)" d="m394.40234,404.91016l103.26563,-46.70703l0.30469,0.67187l-103.26563,46.70703l-0.30469,-0.67187zm0,0"/>
  </g>
  <mask id="mask31">
   <g id="svg_125" filter="url(#alpha)">
    <rect id="svg_126" fill="rgb(0%,0%,0%)" fill-opacity="0.10196" height="600" width="754" y="0" x="0"/>
   </g>
  </mask>
  <clipPath id="clip32">
   <rect id="svg_127" height="600" width="754" y="0" x="0"/>
  </clipPath>
  <g clip-path="url(#clip32)" id="surface98">
   <path id="svg_128" fill-rule="nonzero" fill="rgb(0%,0%,0%)" d="m395.21484,407.91406l113.5586,-49.69922l0.29687,0.67579l-113.5625,49.70312l-0.29297,-0.67969zm0,0"/>
  </g>
  <mask id="mask32">
   <g id="svg_129" filter="url(#alpha)">
    <rect id="svg_130" fill="rgb(0%,0%,0%)" fill-opacity="0.10196" height="600" width="754" y="0" x="0"/>
   </g>
  </mask>
  <clipPath id="clip33">
   <rect id="svg_131" height="600" width="754" y="0" x="0"/>
  </clipPath>
  <g clip-path="url(#clip33)" id="surface101">
   <path id="svg_132" fill-rule="nonzero" fill="rgb(0%,0%,0%)" d="m396.92969,412.96875l136.15234,-58.88281l0.29297,0.67969l-136.15234,58.8789l-0.29297,-0.67578zm0,0"/>
  </g>
  <mask id="mask33">
   <g id="svg_133" filter="url(#alpha)">
    <rect id="svg_134" fill="rgb(0%,0%,0%)" fill-opacity="0.30196" height="600" width="754" y="0" x="0"/>
   </g>
  </mask>
  <clipPath id="clip34">
   <rect id="svg_135" height="600" width="754" y="0" x="0"/>
  </clipPath>
  <g clip-path="url(#clip34)" id="surface104">
   <path id="svg_136" fill-rule="nonzero" fill="rgb(100%,100%,100%)" d="m192.33984,300.90625l129.71875,-27.30469l79.02735,15.12891l-106.29688,34.31641l-102.44922,-22.14063zm0,0"/>
  </g>
  <mask id="mask34">
   <g id="svg_137" filter="url(#alpha)">
    <rect id="svg_138" fill="rgb(0%,0%,0%)" fill-opacity="0.10196" height="600" width="754" y="0" x="0"/>
   </g>
  </mask>
  <clipPath id="clip35">
   <rect id="svg_139" height="600" width="754" y="0" x="0"/>
  </clipPath>
  <g clip-path="url(#clip35)" id="surface107">
   <path id="svg_140" fill-rule="nonzero" fill="rgb(42.352941%,38.823529%,100%)" d="m622.82031,159.46875c0,0 -28.00781,-1.69141 -24.73437,17.98438c0,0 -0.65625,3.47656 2.48828,5.05468c0,0 0.05469,-1.47265 2.875,-0.96484c1.00781,0.16797 2.03516,0.21875 3.05469,0.14844c1.35937,-0.10157 2.65234,-0.64063 3.68359,-1.53516c0,0 7.88672,-3.26172 10.94531,-16.16406c0,0 2.26953,-2.8125 2.21094,-3.53516l-4.73047,2.02344c0,0 1.61328,3.41797 0.34375,6.25781c0,0 -0.15234,-6.13281 -1.05859,-5.99219c-0.1875,0 -2.46485,1.1875 -2.46485,1.1875c0,0 2.78125,5.95704 0.6875,10.28125c0,0 0.79688,-7.33593 -1.55468,-9.85156l-3.33203,1.94531c0,0 3.25,6.14844 1.04687,11.16797c0,0 0.56641,-7.69922 -1.74609,-10.69531l-3.01563,2.36328c0,0 3.05078,6.0586 1.1875,10.22266c0,0 -0.24609,-8.96094 -1.84375,-9.64063c0,0 -2.64062,2.33203 -3.04297,3.29297c0,0 2.09375,4.42578 0.79297,6.72266c0,0 -0.79297,-5.97266 -1.47265,-6c0,0 -2.62891,3.95703 -2.90235,6.64062c0.125,-2.5039 0.91016,-4.93359 2.26953,-7.03906c-1.51953,0.28906 -2.92187,1.01172 -4.03125,2.08984c0,0 0.41016,-2.80078 4.67969,-3.04296c0,0 2.17188,-3.00391 2.75781,-3.1875c0,0 -4.24609,-0.35547 -6.82812,0.78906c0,0 2.26953,-2.63281 7.60156,-1.47656l2.94531,-2.4336c0,0 -5.59375,-0.73828 -7.95703,0.08203c0,0 2.72656,-2.33203 8.76172,-0.63672l3.24219,-1.9414c0,0 -4.76563,-1.02344 -7.60547,-0.65625c0,0 2.99219,-1.61719 8.55859,0.13281l2.32032,-1.03906c0,0 -3.49219,-0.6875 -4.51954,-0.79688c-1.02343,-0.11328 -1.07421,-0.39453 -1.07421,-0.39453c2.21093,-0.36719 4.48437,-0.10937 6.55859,0.73828c0,0 4.99219,-1.79297 4.90234,-2.10156zm0,0"/>
  </g>
  <mask id="mask35">
   <g id="svg_141" filter="url(#alpha)">
    <rect id="svg_142" fill="rgb(0%,0%,0%)" fill-opacity="0.10196" height="600" width="754" y="0" x="0"/>
   </g>
  </mask>
  <clipPath id="clip36">
   <rect id="svg_143" height="600" width="754" y="0" x="0"/>
  </clipPath>
  <g clip-path="url(#clip36)" id="surface110">
   <path id="svg_144" fill-rule="nonzero" fill="rgb(42.352941%,38.823529%,100%)" d="m275.96484,200.14844c0,0 -12.20312,-25.33594 -27.74218,-12.84766c0,0 -3.35157,1.1211 -3.19141,4.64063c0,0 1.28906,-0.67188 2.21094,2.04297c0.34375,0.96093 0.80078,1.8789 1.35547,2.73046c0.7539,1.16016 1.86328,2.03907 3.16406,2.51172c0,0 6.68359,5.29688 19.42578,1.67969c0,0 3.5625,0.61328 4.14453,0.1875l-4.07031,-3.15234c0,0 -2.21094,3.07812 -5.28906,3.35156c0,0 5.27734,-3.125 4.70703,-3.84766c-0.11719,-0.14453 -2.21094,-1.57031 -2.21094,-1.57031c0,0 -3.83984,5.33594 -8.62891,5.60938c0,0 6.78125,-2.87891 7.82813,-6.16407l-3.32031,-1.96093c0,0 -3.77735,5.84375 -9.22657,6.35937c0,0 6.98829,-3.25391 8.46875,-6.73828l-3.52343,-1.47656c0,0 -3.79297,5.625 -8.33594,6.03125c0,0 7.69531,-4.58203 7.50391,-6.31641c0,0 -3.32422,-1.16797 -4.35547,-1.05469c0,0 -2.81641,3.97657 -5.46875,3.97657c0,0 4.8125,-3.60938 4.51953,-4.19141c0,0 -4.73438,-0.37109 -7.22656,0.73828c2.24609,-1.11719 4.74609,-1.62891 7.24609,-1.47656c-0.99219,-1.1875 -2.30859,-2.05469 -3.78906,-2.50391c0,0 2.64062,-1.0039 4.93359,2.60547c0,0 3.68359,0.4375 4.11719,0.85547c0,0 -1.76172,-3.87891 -4.00781,-5.57031c0,0 3.40625,0.6875 4.96093,5.90234l3.57422,1.41797c0,0 -2.05859,-5.25391 -3.94922,-6.91406c0,0 3.35938,1.24609 4.82422,7.3789l3.27344,1.89063c0,0 -1.42188,-4.67188 -3.13281,-6.96875c0,0 2.86718,1.83203 4.05468,7.54297l2.04297,1.51953c0,0 -1.10547,-3.38672 -1.47656,-4.33203c-0.36719,-0.94141 -0.18359,-1.13672 -0.18359,-1.13672c1.40234,1.7539 2.28906,3.86328 2.5664,6.08984c0,0 3.94141,3.37891 4.20703,3.16016zm0,0"/>
  </g>
  <mask id="mask36">
   <g id="svg_145" filter="url(#alpha)">
    <rect id="svg_146" fill="rgb(0%,0%,0%)" fill-opacity="0.10196" height="600" width="754" y="0" x="0"/>
   </g>
  </mask>
  <clipPath id="clip37">
   <rect id="svg_147" height="600" width="754" y="0" x="0"/>
  </clipPath>
  <g clip-path="url(#clip37)" id="surface113">
   <path id="svg_148" fill-rule="nonzero" fill="rgb(42.352941%,38.823529%,100%)" d="m558.82813,123.67578c0,0 -12.19532,-25.33594 -27.74219,-12.84765c0,0 -3.34375,1.12109 -3.19141,4.64062c0,0 1.29688,-0.66406 2.21094,2.04297c0.34375,0.96484 0.80469,1.88281 1.36328,2.73828c0.75391,1.15625 1.85938,2.03516 3.15625,2.50391c0,0 6.69141,5.29687 19.42969,1.6875c0,0 3.55859,0.60547 4.14844,0.17968l-4.04688,-3.16015c0,0 -2.21094,3.08594 -5.28516,3.35937c0,0 5.26954,-3.1289 4.70313,-3.85547c-0.11719,-0.14453 -2.21094,-1.57031 -2.21094,-1.57031c0,0 -3.83203,5.33594 -8.6289,5.60938c0,0 6.78515,-2.87891 7.83203,-6.15625l-3.36719,-1.94922c0,0 -3.77344,5.83984 -9.22656,6.36328c0,0 6.98437,-3.26172 8.47656,-6.74609l-3.53125,-1.47657c0,0 -3.79688,5.63282 -8.32813,6.03125c0,0 7.6875,-4.58203 7.4961,-6.30859c0,0 -3.32031,-1.17578 -4.35156,-1.05859c0,0 -2.81641,3.97265 -5.47657,3.97265c0,0 4.82032,-3.60937 4.52735,-4.1914c0,0 -4.73047,-0.3711 -7.23047,0.73828c2.24609,-1.11719 4.74219,-1.62891 7.24609,-1.47657c-0.99219,-1.1875 -2.30469,-2.05468 -3.78125,-2.5039c0,0 2.63672,-1.00391 4.92969,2.60547c0,0 3.68359,0.44531 4.12109,0.86328c0,0 -1.76172,-3.88672 -4.01953,-5.57813c0,0 3.40625,0.69532 4.96094,5.94141l3.58203,1.41797c0,0 -2.05469,-5.26172 -3.94922,-6.92578c0,0 3.35938,1.25 4.82031,7.38281l3.28125,1.88672c0,0 -1.43359,-4.66406 -3.14062,-6.96485c0,0 2.875,1.82813 4.05469,7.54297l2.03906,1.51953c0,0 -1.09766,-3.38671 -1.47266,-4.33203c-0.375,-0.94531 -0.18359,-1.1289 -0.18359,-1.1289c1.39844,1.7539 2.28125,3.85937 2.55469,6.08984c0,0 4.0039,3.34766 4.23047,3.11328zm0,0"/>
  </g>
  <mask id="mask37">
   <g id="svg_149" filter="url(#alpha)">
    <rect id="svg_150" fill="rgb(0%,0%,0%)" fill-opacity="0.10196" height="600" width="754" y="0" x="0"/>
   </g>
  </mask>
  <clipPath id="clip38">
   <rect id="svg_151" height="600" width="754" y="0" x="0"/>
  </clipPath>
  <g clip-path="url(#clip38)" id="surface116">
   <path id="svg_152" fill-rule="nonzero" fill="rgb(42.352941%,38.823529%,100%)" d="m597.8125,248.99609c0,0 -12.19922,-25.34375 -27.76562,-12.85546c0,0 -3.34375,1.12109 -3.19141,4.64062c0,0 1.29687,-0.66406 2.21094,2.04688c0.34375,0.96093 0.79687,1.88281 1.35547,2.73828c0.7539,1.15234 1.85937,2.03125 3.15625,2.5c0,0 6.6914,5.30468 19.4375,1.6914c0,0 3.55078,0.60938 4.14062,0.17578l-4.07031,-3.15234c0,0 -2.21094,3.08594 -5.28906,3.35938c0,0 5.26953,-3.12891 4.70312,-3.85157c-0.12109,-0.14843 -2.21484,-1.57422 -2.21484,-1.57422c0,0 -3.83203,5.33594 -8.62891,5.61719c0,0 6.78906,-2.88672 7.83594,-6.16406l-3.32422,-1.96094c0,0 -3.77344,5.84375 -9.23047,6.35938c0,0 6.98828,-3.26172 8.47656,-6.74219l-3.53125,-1.47656c0,0 -3.79297,5.62109 -8.32812,6.02734c0,0 7.69531,-4.58203 7.5039,-6.31641c0,0 -3.32421,-1.17187 -4.35546,-1.05468c0,0 -2.81641,3.96875 -5.47657,3.96875c0,0 4.82032,-3.60547 4.52735,-4.19141c0,0 -4.73438,-0.36719 -7.23047,0.73828c2.24609,-1.11719 4.74609,-1.625 7.25,-1.47656c-0.98828,-1.1875 -2.3086,-2.05859 -3.78906,-2.5c0,0 2.64062,-1.01172 4.93359,2.60547c0,0 3.68359,0.43359 4.11719,0.85547c0,0 -1.75782,-3.88282 -4.00782,-5.57813c0,0 3.40625,0.69141 4.96094,5.94141l3.57422,1.41406c0,0 -2.05469,-5.26172 -3.94922,-6.91406c0,0 3.35938,1.23828 4.82031,7.3789l3.27735,1.88282c0,0 -1.42969,-4.66407 -3.14063,-6.96485c0,0 2.875,1.82813 4.0625,7.54688l2.04297,1.47656c0,0 -1.10547,-3.38672 -1.47656,-4.33203c-0.36719,-0.94531 -0.18359,-1.12891 -0.18359,-1.12891c1.40234,1.75391 2.28906,3.85938 2.55859,6.08985c0,0 4.00781,3.40234 4.23828,3.17968zm0,0"/>
  </g>
  <mask id="mask38">
   <g id="svg_153" filter="url(#alpha)">
    <rect id="svg_154" fill="rgb(0%,0%,0%)" fill-opacity="0.10196" height="600" width="754" y="0" x="0"/>
   </g>
  </mask>
  <clipPath id="clip39">
   <rect id="svg_155" height="600" width="754" y="0" x="0"/>
  </clipPath>
  <g clip-path="url(#clip39)" id="surface119">
   <path id="svg_156" fill-rule="nonzero" fill="rgb(42.352941%,38.823529%,100%)" d="m165.79297,576.82031c0,-1.04687 -7.58594,-1.89843 -16.94531,-1.89843c-9.35938,0 -16.94532,0.85156 -16.94532,1.89843c0,1.04688 7.58594,1.89453 16.94532,1.89453c9.35937,0 16.94531,-0.84765 16.94531,-1.89453zm0,0"/>
  </g>
  <mask id="mask39">
   <g id="svg_157" filter="url(#alpha)">
    <rect id="svg_158" fill="rgb(0%,0%,0%)" fill-opacity="0.10196" height="600" width="754" y="0" x="0"/>
   </g>
  </mask>
  <clipPath id="clip40">
   <rect id="svg_159" height="600" width="754" y="0" x="0"/>
  </clipPath>
  <g clip-path="url(#clip40)" id="surface122">
   <path id="svg_160" fill-rule="nonzero" fill="rgb(42.352941%,38.823529%,100%)" d="m54.71094,544.58203c0,-1.04687 -7.58594,-1.89453 -16.94531,-1.89453c-9.35938,0 -16.94532,0.84766 -16.94532,1.89453c0,1.04688 7.58594,1.89844 16.94532,1.89844c9.35937,0 16.94531,-0.85156 16.94531,-1.89844zm0,0"/>
  </g>
  <mask id="mask40">
   <g id="svg_161" filter="url(#alpha)">
    <rect id="svg_162" fill="rgb(0%,0%,0%)" fill-opacity="0.10196" height="600" width="754" y="0" x="0"/>
   </g>
  </mask>
  <clipPath id="clip41">
   <rect id="svg_163" height="600" width="754" y="0" x="0"/>
  </clipPath>
  <g clip-path="url(#clip41)" id="surface125">
   <path id="svg_164" fill-rule="nonzero" fill="rgb(42.352941%,38.823529%,100%)" d="m250.46484,598.23047c0,-1.05078 -7.58593,-1.89844 -16.94531,-1.89844c-9.35937,0 -16.94531,0.84766 -16.94531,1.89844c0,1.04687 7.58594,1.89453 16.94531,1.89453c9.35938,0 16.94531,-0.84766 16.94531,-1.89453zm0,0"/>
  </g>
  <mask id="mask41">
   <g id="svg_165" filter="url(#alpha)">
    <rect id="svg_166" fill="rgb(0%,0%,0%)" fill-opacity="0.10196" height="600" width="754" y="0" x="0"/>
   </g>
  </mask>
  <clipPath id="clip42">
   <rect id="svg_167" height="600" width="754" y="0" x="0"/>
  </clipPath>
  <g clip-path="url(#clip42)" id="surface128">
   <path id="svg_168" fill-rule="nonzero" fill="rgb(42.352941%,38.823529%,100%)" d="m684.36328,551.59375c0,-1.04687 -7.58594,-1.89453 -16.94531,-1.89453c-9.35547,0 -16.94531,0.84766 -16.94531,1.89453c0,1.04688 7.58984,1.89844 16.94531,1.89844c9.35937,0 16.94531,-0.85156 16.94531,-1.89844zm0,0"/>
  </g>
  <mask id="mask42">
   <g id="svg_169" filter="url(#alpha)">
    <rect id="svg_170" fill="rgb(0%,0%,0%)" fill-opacity="0.10196" height="600" width="754" y="0" x="0"/>
   </g>
  </mask>
  <clipPath id="clip43">
   <rect id="svg_171" height="600" width="754" y="0" x="0"/>
  </clipPath>
  <g clip-path="url(#clip43)" id="surface131">
   <path id="svg_172" fill-rule="nonzero" fill="rgb(42.352941%,38.823529%,100%)" d="m543.35938,542.39063c0,-1.04688 -7.58594,-1.89454 -16.94532,-1.89454c-9.35937,0 -16.94531,0.84766 -16.94531,1.89454c0,1.04687 7.58594,1.89843 16.94531,1.89843c9.35938,0 16.94532,-0.85156 16.94532,-1.89843zm0,0"/>
  </g>
  <mask id="mask43">
   <g id="svg_173" filter="url(#alpha)">
    <rect id="svg_174" fill="rgb(0%,0%,0%)" fill-opacity="0.10196" height="600" width="754" y="0" x="0"/>
   </g>
  </mask>
  <clipPath id="clip44">
   <rect id="svg_175" height="600" width="754" y="0" x="0"/>
  </clipPath>
  <g clip-path="url(#clip44)" id="surface134">
   <path id="svg_176" fill-rule="nonzero" fill="rgb(42.352941%,38.823529%,100%)" d="m455.23828,585.72656c0,-1.90234 -8.97265,-3.44531 -20.03906,-3.44531c-11.07031,0 -20.04297,1.54297 -20.04297,3.44531c0,1.90235 8.97266,3.44532 20.04297,3.44532c11.06641,0 20.03906,-1.54297 20.03906,-3.44532zm0,0"/>
  </g>
  <mask id="mask44">
   <g id="svg_177" filter="url(#alpha)">
    <rect id="svg_178" fill="rgb(0%,0%,0%)" fill-opacity="0.10196" height="600" width="754" y="0" x="0"/>
   </g>
  </mask>
  <clipPath id="clip45">
   <rect id="svg_179" height="600" width="754" y="0" x="0"/>
  </clipPath>
  <g clip-path="url(#clip45)" id="surface137">
   <path id="svg_180" fill-rule="nonzero" fill="rgb(0%,0%,0%)" d="m444.51953,232.38281c0,0 10.76172,8.82032 14.00391,9.59375c3.24609,0.77735 5.23437,7.65625 5.23437,7.65625"/>
  </g>
  <mask id="mask45">
   <g id="svg_181" filter="url(#alpha)">
    <rect id="svg_182" fill="rgb(0%,0%,0%)" fill-opacity="0.10196" height="600" width="754" y="0" x="0"/>
   </g>
  </mask>
  <clipPath id="clip46">
   <rect id="svg_183" height="600" width="754" y="0" x="0"/>
  </clipPath>
  <g clip-path="url(#clip46)" id="surface140">
   <path id="svg_184" fill-rule="nonzero" fill="rgb(0%,0%,0%)" d="m400.87891,80.64063l25.17187,0l0,39.28515l-25.17187,0l0,-39.28515zm0,0"/>
  </g>
  <mask id="mask46">
   <g id="svg_185" filter="url(#alpha)">
    <rect id="svg_186" fill="rgb(0%,0%,0%)" fill-opacity="0.01961" height="600" width="754" y="0" x="0"/>
   </g>
  </mask>
  <clipPath id="clip47">
   <rect id="svg_187" height="600" width="754" y="0" x="0"/>
  </clipPath>
  <g clip-path="url(#clip47)" id="surface143">
   <path id="svg_188" fill-rule="nonzero" fill="rgb(0%,0%,0%)" d="m348.19531,268.02344c0,0 -8.60156,9.46875 -5.41015,11.1875c3.1914,1.71875 23.83593,33.94922 23.83593,33.94922c0,0 67.8086,8.35937 80.59766,-4.1875c12.78906,-12.54297 12.53125,-34.95703 12.53125,-34.95703c0,0 -10.27734,2.21484 -11.39453,1.01171c-1.12109,-1.20312 -7.27734,-7.0039 -7.27734,-7.0039c0,0 -86.98438,-5.28516 -92.88282,0zm0,0"/>
  </g>
  <mask id="mask47">
   <g id="svg_189" filter="url(#alpha)">
    <rect id="svg_190" fill="rgb(0%,0%,0%)" fill-opacity="0.10196" height="600" width="754" y="0" x="0"/>
   </g>
  </mask>
  <clipPath id="clip48">
   <rect id="svg_191" height="600" width="754" y="0" x="0"/>
  </clipPath>
  <g clip-path="url(#clip48)" id="surface146">
   <path id="svg_192" fill-rule="nonzero" fill="rgb(0%,0%,0%)" d="m429,74.58203c0,18.20703 -14.74219,32.96875 -32.92578,32.96875c-18.18359,0 -32.92188,-14.76172 -32.92188,-32.96875c0,-18.20703 14.73829,-32.96484 32.92188,-32.96484c18.18359,0 32.92578,14.75781 32.92578,32.96484zm0,0"/>
  </g>
  <mask id="mask48">
   <g id="svg_193" filter="url(#alpha)">
    <rect id="svg_194" fill="rgb(0%,0%,0%)" fill-opacity="0.10196" height="600" width="754" y="0" x="0"/>
   </g>
  </mask>
  <clipPath id="clip49">
   <rect id="svg_195" height="600" width="754" y="0" x="0"/>
  </clipPath>
  <g clip-path="url(#clip49)" id="surface149">
   <path id="svg_196" fill-rule="nonzero" fill="rgb(0%,0%,0%)" d="m470.31641,171.82422l-147.91797,0c0,-0.23828 0,-0.36328 0,-0.36328l1.22265,-21.40235c0,0 12,-12.87109 22.51172,-21.55859l92.86719,-3.6875l4.32031,-4.5625l15.64844,7.1875c12.28516,5.65625 11.29688,21.64844 11.29688,21.64844c0,0 1.67968,18.53125 0.05078,22.73828zm0,0"/>
  </g>
  <mask id="mask49">
   <g id="svg_197" filter="url(#alpha)">
    <rect id="svg_198" fill="rgb(0%,0%,0%)" fill-opacity="0.10196" height="600" width="754" y="0" x="0"/>
   </g>
  </mask>
  <clipPath id="clip50">
   <rect id="svg_199" height="600" width="754" y="0" x="0"/>
  </clipPath>
  <g clip-path="url(#clip50)" id="surface152">
   <path id="svg_200" fill-rule="nonzero" fill="rgb(0%,0%,0%)" d="m372.36328,111.07031c0,0 23.33594,29.76953 54.41797,-0.61328c31.08203,-30.38281 3.44141,67.77344 3.44141,67.77344l-67.07032,7.96875l9.21094,-75.12891zm0,0"/>
  </g>
  <mask id="mask50">
   <g id="svg_201" filter="url(#alpha)">
    <rect id="svg_202" fill="rgb(0%,0%,0%)" fill-opacity="0.10196" height="600" width="754" y="0" x="0"/>
   </g>
  </mask>
  <clipPath id="clip51">
   <rect id="svg_203" height="600" width="754" y="0" x="0"/>
  </clipPath>
  <g clip-path="url(#clip51)" id="surface155">
   <path id="svg_204" fill-rule="nonzero" fill="rgb(0%,0%,0%)" d="m436.38281,117.76953l2.46875,37.70703l2.64844,12.54688l2.01953,9.59375c0,0 5.16016,73.80078 3.6836,77.48828c-1.47266,3.69141 0.73828,6.64453 1.04687,8.60547c0.30859,1.96484 -0.30859,6.89453 -0.06641,9.10937c0.24219,2.21485 0,3.19532 -5.64453,2.40625c-5.64843,-0.79297 -13.51953,-2.16406 -13.51953,-2.16406c0,0 -19.89844,1.47656 -26.77734,-0.98047c-6.875,-2.45703 -19.89844,-2.46484 -19.89844,-2.46484c0,0 -19.65625,0.49219 -26.03906,-0.2461c-6.38281,-0.73828 -9.83203,7.875 -14.00391,5.41016c-4.17187,-2.46484 4.90625,-26.31641 7.85547,-33.21094c2.94922,-6.89062 -3.92969,-24.35156 -3.92969,-24.35156l8.84766,-49.12891l1.96484,-11.13671l0,-35.01172l0.48828,-0.17188c1.79297,-0.69922 3.39454,-1.8164 4.67188,-3.26172l2.21094,35.23438l69.28515,2.46484l0,-39.65234"/>
  </g>
  <mask id="mask51">
   <g id="svg_205" filter="url(#alpha)">
    <rect id="svg_206" fill="rgb(0%,0%,0%)" fill-opacity="0.10196" height="600" width="754" y="0" x="0"/>
   </g>
  </mask>
  <clipPath id="clip52">
   <rect id="svg_207" height="600" width="754" y="0" x="0"/>
  </clipPath>
  <g clip-path="url(#clip52)" id="surface158">
   <path id="svg_208" fill-rule="nonzero" fill="rgb(0%,0%,0%)" d="m444.35156,37.60938c-0.42187,-1.54297 -1.0039,-3.14454 -2.21093,-4.17579c-1.15625,-0.83203 -2.48829,-1.3789 -3.89063,-1.59765c-3.36328,-0.88281 -6.78125,-1.53906 -10.23047,-1.96094c-0.49219,-1.64062 -1.23828,-3.19141 -2.21094,-4.59766c-7.22265,-10.21484 -17.91015,-19.84375 -30.48437,-22.02343c-6.58203,-1.14453 -14.21094,-0.11719 -18.42578,5.07812c-2.31641,2.85547 -3.3125,6.64063 -5.64844,9.44531c-4.50391,5.44922 -12.63281,6.1211 -18.30859,10.33204c-3.02735,2.21484 -5.22266,5.42578 -7.36719,8.53906c-2.32422,3.375 -4.71094,6.88672 -5.44922,10.91797c-1.47266,8.05078 3.83984,15.72656 4.82031,23.85156c2.21094,18.17578 -17.24609,34.30078 -13.57031,52.23437c2.14844,10.45704 11.79297,17.82422 21.77344,21.5586c3.51562,1.32031 7.53515,2.63281 9.17578,6.01562c0.73828,1.47266 0.86328,3.17969 1.55469,4.67188c2.33203,4.97265 9.98828,5.16406 14.10156,1.53906c4.11328,-3.62109 5.41016,-9.48047 5.89453,-14.94922c1.97656,-23.88281 -7.57422,-47.47656 -6.46094,-71.41797c0.33203,-7.23828 2.36328,-15.45312 8.84375,-18.73047c8.71875,-4.42968 19.20703,2.95313 28.80469,1.54297c4.53906,11.0625 5.50391,23.27344 2.75391,34.91407c-1.52344,6.37109 -4.16407,12.54687 -4.35547,19.11328c-0.28516,10 5.10156,19.13672 9.75781,27.98047c1,1.65234 1.66797,3.48437 1.96875,5.39453c0.07422,1.9375 -0.28516,3.86328 -1.05469,5.64453c-2.6289,7.09375 -7.17187,13.67578 -7.6875,21.22656c-0.14843,0.87891 0.04688,1.78516 0.55469,2.52344c0.51953,0.49219 1.1875,0.79297 1.90234,0.85547c7.95704,1.36328 14.84375,-5.69922 18.72657,-12.78907c4.33203,-7.83593 6.85547,-16.53906 7.38672,-25.47656c0.80078,-15.02734 -4.57813,-29.80859 -4.2461,-44.84765c0.38281,-17.10157 8.10156,-34.32032 3.58203,-50.8125zm0,0"/>
  </g>
  <mask id="mask52">
   <g id="svg_209" filter="url(#alpha)">
    <rect id="svg_210" fill="rgb(0%,0%,0%)" fill-opacity="0.10196" height="600" width="754" y="0" x="0"/>
   </g>
  </mask>
  <clipPath id="clip53">
   <rect id="svg_211" height="600" width="754" y="0" x="0"/>
  </clipPath>
  <g clip-path="url(#clip53)" id="surface161">
   <path id="svg_212" fill-rule="nonzero" fill="rgb(0%,0%,0%)" d="m341.42969,331.98438l-4.97656,34.55468l-0.07813,-0.11718c-2.46094,7.7539 -8.10937,1.84375 -8.10937,1.84375c0,0 2.45703,-23.61719 1.70312,-26.56641c-0.75,-2.95313 4.85547,-8.02344 4.85547,-8.02344l6.60547,-1.6914zm0,0"/>
  </g>
  <mask id="mask53">
   <g id="svg_213" filter="url(#alpha)">
    <rect id="svg_214" fill="rgb(0%,0%,0%)" fill-opacity="0.10196" height="600" width="754" y="0" x="0"/>
   </g>
  </mask>
  <clipPath id="clip54">
   <rect id="svg_215" height="600" width="754" y="0" x="0"/>
  </clipPath>
  <g clip-path="url(#clip54)" id="surface164">
   <path id="svg_216" fill-rule="nonzero" fill="rgb(0%,0%,0%)" d="m376.20313,233.69922c0,0 13.01562,4.42578 24.32421,0"/>
  </g>
  <mask id="mask54">
   <g id="svg_217" filter="url(#alpha)">
    <rect id="svg_218" fill="rgb(0%,0%,0%)" fill-opacity="0.10196" height="600" width="754" y="0" x="0"/>
   </g>
  </mask>
  <clipPath id="clip55">
   <rect id="svg_219" height="600" width="754" y="0" x="0"/>
  </clipPath>
  <g clip-path="url(#clip55)" id="surface167">
   <path id="svg_220" fill-rule="nonzero" fill="rgb(0%,0%,0%)" d="m420.64063,242.06641c0,0 5.40234,2.69922 9.58203,0"/>
  </g>
  <mask id="mask55">
   <g id="svg_221" filter="url(#alpha)">
    <rect id="svg_222" fill="rgb(0%,0%,0%)" fill-opacity="0.10196" height="600" width="754" y="0" x="0"/>
   </g>
  </mask>
  <clipPath id="clip56">
   <rect id="svg_223" height="600" width="754" y="0" x="0"/>
  </clipPath>
  <g clip-path="url(#clip56)" id="surface170">
   <path id="svg_224" fill-rule="nonzero" fill="rgb(0%,0%,0%)" d="m420.64063,248.47266c0,0 9.08593,1.21875 10.8125,-1.23828"/>
  </g>
  <mask id="mask56">
   <g id="svg_225" filter="url(#alpha)">
    <rect id="svg_226" fill="rgb(0%,0%,0%)" fill-opacity="0.10196" height="600" width="754" y="0" x="0"/>
   </g>
  </mask>
  <clipPath id="clip57">
   <rect id="svg_227" height="600" width="754" y="0" x="0"/>
  </clipPath>
  <g clip-path="url(#clip57)" id="surface173">
   <path id="svg_228" fill-rule="nonzero" fill="rgb(0%,0%,0%)" d="m417.69141,262.23438c0,0 17.07031,-2.21094 21.30859,-5.16407"/>
  </g>
  <mask id="mask57">
   <g id="svg_229" filter="url(#alpha)">
    <rect id="svg_230" fill="rgb(0%,0%,0%)" fill-opacity="0.10196" height="600" width="754" y="0" x="0"/>
   </g>
  </mask>
  <clipPath id="clip58">
   <rect id="svg_231" height="600" width="754" y="0" x="0"/>
  </clipPath>
  <g clip-path="url(#clip58)" id="surface176">
   <path id="svg_232" fill-rule="nonzero" fill="rgb(0%,0%,0%)" d="m365.60547,257.07031c0,0 9.58203,5.41016 16.70703,5.16407"/>
  </g>
  <mask id="mask58">
   <g id="svg_233" filter="url(#alpha)">
    <rect id="svg_234" fill="rgb(0%,0%,0%)" fill-opacity="0.10196" height="600" width="754" y="0" x="0"/>
   </g>
  </mask>
  <clipPath id="clip59">
   <rect id="svg_235" height="600" width="754" y="0" x="0"/>
  </clipPath>
  <g clip-path="url(#clip59)" id="surface179">
   <path id="svg_236" fill-rule="nonzero" fill="rgb(0%,0%,0%)" d="m444.75,340.18359c-2.76953,0.65625 -5.57031,1.16016 -8.39453,1.51563c-4.42188,0.24219 -52.81641,-16.23828 -52.81641,-16.23828l9.32813,-9.59375l0.51562,-0.17578c1.47657,1.03906 2.6836,1.93359 3.54688,2.60937c4.0625,3.20313 7.98047,-0.98047 9.45703,-0.98047c1.47266,0 14.24609,10.57813 14.24609,10.57813c0,0 11.79297,2.70703 13.76172,5.16406c1.96875,2.45703 8.84375,1.97266 10.06641,3.69141c0.37109,0.53125 0.41406,1.83593 0.28906,3.42968zm0,0"/>
  </g>
  <mask id="mask59">
   <g id="svg_237" filter="url(#alpha)">
    <rect id="svg_238" fill="rgb(0%,0%,0%)" fill-opacity="0.10196" height="600" width="754" y="0" x="0"/>
   </g>
  </mask>
  <clipPath id="clip60">
   <rect id="svg_239" height="600" width="754" y="0" x="0"/>
  </clipPath>
  <g clip-path="url(#clip60)" id="surface182">
   <path id="svg_240" fill-rule="nonzero" fill="rgb(0%,0%,0%)" d="m329.96875,283.39453c4.30469,-0.8789 8.77344,0.30078 12.08203,3.19531c5.89453,4.92188 25.73438,14.80469 25.73438,14.80469"/>
  </g>
  <mask id="mask60">
   <g id="svg_241" filter="url(#alpha)">
    <rect id="svg_242" fill="rgb(0%,0%,0%)" fill-opacity="0.10196" height="600" width="754" y="0" x="0"/>
   </g>
  </mask>
  <clipPath id="clip61">
   <rect id="svg_243" height="600" width="754" y="0" x="0"/>
  </clipPath>
  <g clip-path="url(#clip61)" id="surface185">
   <path id="svg_244" fill-rule="nonzero" fill="rgb(0%,0%,0%)" d="m477.39453,283.08594c0,0 -26.29297,3.98437 -31.19922,9.39453"/>
  </g>
  <mask id="mask61">
   <g id="svg_245" filter="url(#alpha)">
    <rect id="svg_246" fill="rgb(0%,0%,0%)" fill-opacity="0.10196" height="600" width="754" y="0" x="0"/>
   </g>
  </mask>
  <clipPath id="clip62">
   <rect id="svg_247" height="600" width="754" y="0" x="0"/>
  </clipPath>
  <g clip-path="url(#clip62)" id="surface188">
   <path id="svg_248" fill-rule="nonzero" fill="rgb(0%,0%,0%)" d="m507.61328,364.57422l-1.15625,0c6.85938,-5.66797 22.38281,-22.92188 -23.74219,-35.49609l4.01563,-1.36719c0,0 23.58594,1.23437 29.96875,17.46875c6.38281,16.23828 -9.08594,19.39453 -9.08594,19.39453zm0,0"/>
  </g>
  <mask id="mask62">
   <g id="svg_249" filter="url(#alpha)">
    <rect id="svg_250" fill="rgb(0%,0%,0%)" fill-opacity="0.10196" height="600" width="754" y="0" x="0"/>
   </g>
  </mask>
  <clipPath id="clip63">
   <rect id="svg_251" height="600" width="754" y="0" x="0"/>
  </clipPath>
  <g clip-path="url(#clip63)" id="surface191">
   <path id="svg_252" fill-rule="nonzero" fill="rgb(0%,0%,0%)" d="m420.23438,73.36719c0.28515,-8.1211 -1.15625,-16.20313 -4.23047,-23.72266c-9.58203,1.4336 -20.07813,-5.96875 -28.80469,-1.54297c-6.45313,3.27735 -8.48047,11.49219 -8.84375,18.73047c-0.08594,1.91406 -0.10156,3.82422 -0.06641,5.73438c0,-0.67578 0,-1.36328 0.06641,-2.04297c0.33984,-7.23828 2.36719,-15.45313 8.84375,-18.73047c8.72656,-4.42578 19.21094,2.95312 28.80469,1.54297c2.60547,6.36719 4.03906,13.15234 4.23047,20.03125zm0,0"/>
   <path id="svg_253" fill-rule="nonzero" fill="rgb(0%,0%,0%)" d="m345.98438,72.01563c0.125,-1.60938 0.09375,-3.22657 -0.09375,-4.82813c-0.78125,-6.49219 -4.32813,-12.69922 -4.96875,-19.03125c-0.82422,7.63672 4.03125,14.97266 4.96875,22.72266c0.09375,0.39843 0.09375,0.7539 0.09375,1.13672zm0,0"/>
   <path id="svg_254" fill-rule="nonzero" fill="rgb(0%,0%,0%)" d="m384.82031,138.24219c-0.45703,5.47656 -1.74609,11.32812 -5.89843,14.96094c-4.14844,3.6289 -11.78907,3.42968 -14.09766,-1.54297c-0.73828,-1.47657 -0.84766,-3.19532 -1.5625,-4.67188c-1.63672,-3.3789 -5.66016,-4.6914 -9.17578,-6.01562c-9.98828,-3.73828 -19.6211,-11.07032 -21.76563,-21.55469c-0.1914,-0.94922 -0.32031,-1.91406 -0.39062,-2.87891c-0.17969,2.19532 -0.05078,4.40625 0.39062,6.56641c2.14453,10.46094 11.79297,17.81641 21.76563,21.55859c3.51562,1.32032 7.53906,2.63672 9.17578,6.01563c0.73828,1.47656 0.86328,3.17969 1.5625,4.67187c2.32031,4.97266 9.98047,5.16407 14.09766,1.54297c4.12109,-3.625 5.40625,-9.48437 5.89843,-14.96094c0.22266,-2.88281 0.30078,-5.77343 0.22657,-8.66406c0,1.67578 -0.09375,3.32813 -0.22657,4.97266zm0,0"/>
   <path id="svg_255" fill-rule="nonzero" fill="rgb(0%,0%,0%)" d="m441.75,84.18359c0,1.07032 0,2.13282 0,3.19532c0.41406,-13.72657 5.4375,-27.52735 4.94531,-40.96485c-0.38281,12.42578 -4.66406,25.13672 -4.94531,37.76953zm0,0"/>
   <path id="svg_256" fill-rule="nonzero" fill="rgb(0%,0%,0%)" d="m425.93359,139.71094c0.17969,-0.875 0.23829,-1.76953 0.16797,-2.66406c-0.29687,-1.91016 -0.96484,-3.74219 -1.96875,-5.39454c-4.25781,-8.11718 -9.11718,-16.42578 -9.6914,-25.4375c0,0.38282 -0.05078,0.73829 -0.0586,1.15235c-0.29297,9.99219 5.09375,19.13281 9.75,27.97656c0.79297,1.36719 1.39844,2.83984 1.80078,4.36719zm0,0"/>
   <path id="svg_257" fill-rule="nonzero" fill="rgb(0%,0%,0%)" d="m445.98828,129.03516c-0.55078,8.9375 -3.09375,17.64453 -7.4375,25.47265c-3.89062,7.09375 -10.76953,14.15625 -18.73437,12.79297c-0.71485,-0.0625 -1.38672,-0.36719 -1.90235,-0.86719c-0.14843,-0.16796 -0.26953,-0.36328 -0.34765,-0.57421c-0.08594,0.57421 -0.16016,1.16015 -0.20703,1.75c-0.15235,0.8789 0.04687,1.78125 0.55468,2.51562c0.51563,0.49609 1.1875,0.80078 1.90235,0.86328c7.96484,1.36719 14.84375,-5.69531 18.73437,-12.78906c4.34375,-7.83203 6.88672,-16.53516 7.4375,-25.47656c0.08594,-1.72657 0.09375,-3.44532 0.04297,-5.16407c-0.01562,0.49219 -0.01562,0.98047 -0.04297,1.47657zm0,0"/>
  </g>
  <mask id="mask63">
   <g id="svg_258" filter="url(#alpha)">
    <rect id="svg_259" fill="rgb(0%,0%,0%)" fill-opacity="0.10196" height="600" width="754" y="0" x="0"/>
   </g>
  </mask>
  <clipPath id="clip64">
   <rect id="svg_260" height="600" width="754" y="0" x="0"/>
  </clipPath>
  <g clip-path="url(#clip64)" id="surface194">
   <path id="svg_261" fill="none" stroke="rgb(0%,0%,0%)" stroke-miterlimit="10" d="m447.18757,351.20292c0,0 18.65625,7.83594 30.95703,-9.5039"/>
  </g>
  <mask id="mask64">
   <g id="svg_262" filter="url(#alpha)">
    <rect id="svg_263" fill="rgb(0%,0%,0%)" fill-opacity="0.10196" height="600" width="754" y="0" x="0"/>
   </g>
  </mask>
  <clipPath id="clip65">
   <rect id="svg_264" height="600" width="754" y="0" x="0"/>
  </clipPath>
  <g clip-path="url(#clip65)" id="surface197">
   <path id="svg_265" fill="none" stroke="rgb(0%,0%,0%)" stroke-miterlimit="10" d="m450.85945,364.89823c0,0 15.23438,-9.91796 34.64063,-0.32421"/>
  </g>
  <mask id="mask65">
   <g id="svg_266" filter="url(#alpha)">
    <rect id="svg_267" fill="rgb(0%,0%,0%)" fill-opacity="0.10196" height="600" width="754" y="0" x="0"/>
   </g>
  </mask>
  <clipPath id="clip66">
   <rect id="svg_268" height="600" width="754" y="0" x="0"/>
  </clipPath>
  <g clip-path="url(#clip66)" id="surface200">
   <path id="svg_269" fill="none" stroke="rgb(0%,0%,0%)" stroke-miterlimit="10" d="m348.88287,362.64823c0,0 6.39453,-14.44921 23.48048,-3.42968"/>
  </g>
  <mask id="mask66">
   <g id="svg_270" filter="url(#alpha)">
    <rect id="svg_271" fill="rgb(0%,0%,0%)" fill-opacity="0.10196" height="600" width="754" y="0" x="0"/>
   </g>
  </mask>
  <clipPath id="clip67">
   <rect id="svg_272" height="600" width="754" y="0" x="0"/>
  </clipPath>
  <g clip-path="url(#clip67)" id="surface203">
   <path id="svg_273" fill-rule="nonzero" fill="rgb(0%,0%,0%)" d="m328.14063,148.95313l13.04687,-11.8086c0,0 50.58203,-3.32031 52.67578,13.89453c0,0 17.9336,-20.41015 55.64844,-15.86718l15.95703,12.72656l-44.10547,19.3789l-42.85937,14.88672l-31.56641,-14.14843l-18.79687,-19.0625zm0,0"/>
  </g>
  <mask id="mask67">
   <g id="svg_274" filter="url(#alpha)">
    <rect id="svg_275" fill="rgb(0%,0%,0%)" fill-opacity="0.10196" height="600" width="754" y="0" x="0"/>
   </g>
  </mask>
  <clipPath id="clip68">
   <rect id="svg_276" height="600" width="754" y="0" x="0"/>
  </clipPath>
  <g clip-path="url(#clip68)" id="surface206">
   <path id="svg_277" fill-rule="nonzero" fill="rgb(0%,0%,0%)" d="m322.37109,151.16797l5.76954,69.12891l61.17578,3.07421l-2.65235,-68.83203l-0.05468,-1.16015l-64.23829,-2.21094zm0,0"/>
  </g>
  <mask id="mask68">
   <g id="svg_278" filter="url(#alpha)">
    <rect id="svg_279" fill="rgb(0%,0%,0%)" fill-opacity="0.10196" height="600" width="754" y="0" x="0"/>
   </g>
  </mask>
  <clipPath id="clip69">
   <rect id="svg_280" height="600" width="754" y="0" x="0"/>
  </clipPath>
  <g clip-path="url(#clip69)" id="surface209">
   <path id="svg_281" fill-rule="nonzero" fill="rgb(0%,0%,0%)" d="m468.26953,149.69141l-63.10547,9.47656l0,69.4375l61.66797,-8.92188l1.4375,-69.99218zm0,0"/>
  </g>
  <mask id="mask69">
   <g id="svg_282" filter="url(#alpha)">
    <rect id="svg_283" fill="rgb(0%,0%,0%)" fill-opacity="0.30196" height="600" width="754" y="0" x="0"/>
   </g>
  </mask>
  <clipPath id="clip70">
   <rect id="svg_284" height="600" width="754" y="0" x="0"/>
  </clipPath>
  <g clip-path="url(#clip70)" id="surface212">
   <path id="svg_285" fill-rule="nonzero" fill="rgb(100%,100%,100%)" d="m453.38672,165.16016l-34.08594,3.79297l0.74219,11.6289l33.32422,-3.64453l0.01953,-11.77734zm0,0"/>
  </g>
  <mask id="mask70">
   <g id="svg_286" filter="url(#alpha)">
    <rect id="svg_287" fill="rgb(0%,0%,0%)" fill-opacity="0.10196" height="600" width="754" y="0" x="0"/>
   </g>
  </mask>
  <clipPath id="clip71">
   <rect id="svg_288" height="600" width="754" y="0" x="0"/>
  </clipPath>
  <g clip-path="url(#clip71)" id="surface215">
   <path id="svg_289" fill-rule="nonzero" fill="rgb(0%,0%,0%)" d="m405.16406,159.16016c-6.55468,1.47656 -13.41797,-0.23828 -18.50781,-4.6211l2.66016,68.82813c0,0 6.26562,6.78906 15.84765,5.23828l0,-69.44531zm0,0"/>
  </g>
  <mask id="mask71">
   <g id="svg_290" filter="url(#alpha)">
    <rect id="svg_291" fill="rgb(0%,0%,0%)" fill-opacity="0.10196" height="600" width="754" y="0" x="0"/>
   </g>
  </mask>
  <clipPath id="clip72">
   <rect id="svg_292" height="600" width="754" y="0" x="0"/>
  </clipPath>
  <g clip-path="url(#clip72)" id="surface218">
   <path id="svg_293" fill-rule="nonzero" fill="rgb(0%,0%,0%)" d="m405.16406,157.68359c-6.55468,1.47657 -13.41797,-0.23437 -18.50781,-4.62109l2.66016,68.82813c0,0 6.26562,6.78906 15.84765,5.23828l0,-69.44532zm0,0"/>
  </g>
  <mask id="mask72">
   <g id="svg_294" filter="url(#alpha)">
    <rect id="svg_295" fill="rgb(0%,0%,0%)" fill-opacity="0.10196" height="600" width="754" y="0" x="0"/>
   </g>
  </mask>
  <clipPath id="clip73">
   <rect id="svg_296" height="600" width="754" y="0" x="0"/>
  </clipPath>
  <g clip-path="url(#clip73)" id="surface221">
   <path id="svg_297" fill-rule="nonzero" fill="rgb(0%,0%,0%)" d="m406.63672,149.92578c0,0 25.67187,-7.85937 32.36328,-6.7539"/>
  </g>
  <mask id="mask73">
   <g id="svg_298" filter="url(#alpha)">
    <rect id="svg_299" fill="rgb(0%,0%,0%)" fill-opacity="0.10196" height="600" width="754" y="0" x="0"/>
   </g>
  </mask>
  <clipPath id="clip74">
   <rect id="svg_300" height="600" width="754" y="0" x="0"/>
  </clipPath>
  <g clip-path="url(#clip74)" id="surface224">
   <path id="svg_301" fill-rule="nonzero" fill="rgb(0%,0%,0%)" d="m377.92188,146.49609c0,0 -24.88282,-5.90625 -29.03907,-4.23046"/>
  </g>
  <mask id="mask74">
   <g id="svg_302" filter="url(#alpha)">
    <rect id="svg_303" fill="rgb(0%,0%,0%)" fill-opacity="0.10196" height="600" width="754" y="0" x="0"/>
   </g>
  </mask>
  <clipPath id="clip75">
   <rect id="svg_304" height="600" width="754" y="0" x="0"/>
  </clipPath>
  <g clip-path="url(#clip75)" id="surface227">
   <path id="svg_305" fill-rule="nonzero" fill="rgb(0%,0%,0%)" d="m422.82422,150.90625c0,0 17.16406,-6.30078 23.37109,-3.30469"/>
  </g>
  <mask id="mask75">
   <g id="svg_306" filter="url(#alpha)">
    <rect id="svg_307" fill="rgb(0%,0%,0%)" fill-opacity="0.10196" height="600" width="754" y="0" x="0"/>
   </g>
  </mask>
  <clipPath id="clip76">
   <rect id="svg_308" height="600" width="754" y="0" x="0"/>
  </clipPath>
  <g clip-path="url(#clip76)" id="surface230">
   <path id="svg_309" fill-rule="nonzero" fill="rgb(0%,0%,0%)" d="m414.17578,309.01172c2.66016,-2 5.49219,-3.76172 8.46094,-5.26172c4.42187,-2.13281 12.53125,-7.66797 12.53125,-7.66797"/>
  </g>
  <mask id="mask76">
   <g id="svg_310" filter="url(#alpha)">
    <rect id="svg_311" fill="rgb(0%,0%,0%)" fill-opacity="0.10196" height="600" width="754" y="0" x="0"/>
   </g>
  </mask>
  <clipPath id="clip77">
   <rect id="svg_312" height="600" width="754" y="0" x="0"/>
  </clipPath>
  <g clip-path="url(#clip77)" id="surface233">
   <path id="svg_313" fill-rule="nonzero" fill="rgb(0%,0%,0%)" d="m348.88281,233.69922c0,0 -10.76953,8.81641 -14.0039,9.59375c-3.23828,0.77344 -5.23438,7.65234 -5.23438,7.65234"/>
  </g>
  <mask id="mask77">
   <g id="svg_314" filter="url(#alpha)">
    <rect id="svg_315" fill="rgb(0%,0%,0%)" fill-opacity="0.10196" height="600" width="754" y="0" x="0"/>
   </g>
  </mask>
  <clipPath id="clip78">
   <rect id="svg_316" height="600" width="754" y="0" x="0"/>
  </clipPath>
  <g clip-path="url(#clip78)" id="surface236">
   <path id="svg_317" fill-rule="nonzero" fill="rgb(0%,0%,0%)" d="m455.91406,237.28516c0,0 7.03907,4.53125 7.01172,9.94922"/>
  </g>
  <mask id="mask78">
   <g id="svg_318" filter="url(#alpha)">
    <rect id="svg_319" fill="rgb(0%,0%,0%)" fill-opacity="0.10196" height="600" width="754" y="0" x="0"/>
   </g>
  </mask>
  <clipPath id="clip79">
   <rect id="svg_320" height="600" width="754" y="0" x="0"/>
  </clipPath>
  <g clip-path="url(#clip79)" id="surface239">
   <path id="svg_321" fill-rule="nonzero" fill="rgb(0%,0%,0%)" d="m432.58203,56.28125c-1.77734,3.00391 -5.46875,4.42578 -8.94922,4.42578c-3.48047,0 -6.84765,-1.1289 -10.17187,-2.16797c-8.64453,-2.70703 -18.08594,-4.77343 -26.63672,-1.76562c-3.80859,1.33594 -7.31641,3.6914 -11.3125,4.28125c-5.82422,0.91406 -15.19922,-4.16016 -16.21484,-10.6211c-1.14454,7.46485 9.72656,13.85547 16.21484,12.83594c3.99609,-0.6289 7.50391,-2.95312 11.3125,-4.28125c8.55078,-3.01172 17.99219,-0.94531 26.63672,1.76563c3.32422,1.03906 6.6875,2.21093 10.17187,2.16797c3.48828,-0.04297 7.17188,-1.41797 8.94922,-4.42579c0.91797,-1.64062 1.28125,-3.53515 1.03125,-5.39453c-0.11719,1.1211 -0.46875,2.20313 -1.03125,3.17969zm0,0"/>
  </g>
  <mask id="mask79">
   <g id="svg_322" filter="url(#alpha)">
    <rect id="svg_323" fill="rgb(0%,0%,0%)" fill-opacity="0.10196" height="600" width="754" y="0" x="0"/>
   </g>
  </mask>
  <clipPath id="clip80">
   <rect id="svg_324" height="600" width="754" y="0" x="0"/>
  </clipPath>
  <g clip-path="url(#clip80)" id="surface242">
   <path id="svg_325" fill-rule="nonzero" fill="rgb(0%,0%,0%)" d="m699.76953,456.24219c0.37891,0.55469 0.67969,1.15625 0.89063,1.79297c7.64843,9.0039 11.73437,17.41015 4.37109,17.61718c-6.85547,0.19922 -15.07422,12.47266 -17.04297,15.56641c0.06641,0.25 0.14063,0.49609 0.23047,0.73828c0,0 9.64063,-16.04687 17.48438,-16.27344c7.83984,-0.23046 2.67968,-9.79296 -5.9336,-19.4414zm0,0"/>
  </g>
  <mask id="mask80">
   <g id="svg_326" filter="url(#alpha)">
    <rect id="svg_327" fill="rgb(0%,0%,0%)" fill-opacity="0.10196" height="600" width="754" y="0" x="0"/>
   </g>
  </mask>
  <clipPath id="clip81">
   <rect id="svg_328" height="600" width="754" y="0" x="0"/>
  </clipPath>
  <g clip-path="url(#clip81)" id="surface245">
   <path id="svg_329" fill-rule="nonzero" fill="rgb(0%,0%,0%)" d="m676.66797,456.24219c-0.37891,0.55469 -0.67969,1.15625 -0.89063,1.79297c-7.65234,9.0039 -11.73437,17.41015 -4.37109,17.61718c6.84766,0.19922 15.07422,12.47266 17.03906,15.56641c-0.05859,0.25 -0.14062,0.49609 -0.23437,0.73828c0,0 -9.63281,-16.04687 -17.48438,-16.27344c-7.84765,-0.23046 -2.65234,-9.79296 5.94141,-19.4414zm0,0"/>
  </g>
  <mask id="mask81">
   <g id="svg_330" filter="url(#alpha)">
    <rect id="svg_331" fill="rgb(0%,0%,0%)" fill-opacity="0.10196" height="600" width="754" y="0" x="0"/>
   </g>
  </mask>
  <clipPath id="clip82">
   <rect id="svg_332" height="600" width="754" y="0" x="0"/>
  </clipPath>
  <g clip-path="url(#clip82)" id="surface248">
   <path id="svg_333" fill-rule="nonzero" fill="rgb(42.352941%,38.823529%,100%)" d="m733.91406,528.6875c0,-3.87891 -20.45703,-7.01953 -45.69531,-7.01953c-25.23828,0 -45.69531,3.14062 -45.69531,7.01953c0,3.875 20.45703,7.01563 45.69531,7.01563c25.23828,0 45.69531,-3.14063 45.69531,-7.01563zm0,0"/>
  </g>
  <linearGradient y2="-0.00002" x2="0.49998" y1="1.00006" x1="0.49998" id="linear0">
   <stop stop-color="rgb(50.196078%,50.196078%,50.196078%)" stop-opacity="0.25098" offset="0"/>
   <stop stop-color="rgb(50.196078%,50.196078%,50.196078%)" stop-opacity="0.12157" offset="0.54"/>
   <stop stop-color="rgb(50.196078%,50.196078%,50.196078%)" stop-opacity="0.10196" offset="1"/>
  </linearGradient>
 </defs>
 <g>
  <title>background</title>
  <rect fill="none" id="canvas_background" height="602" width="602" y="-1" x="-1"/>
 </g>
 <g>
  <title>Layer 1</title>
  <g id="surface1">
   <use x="-121" y="57" id="svg_334" mask="url(#mask0)" xlink:href="#surface5"/>
   <path id="svg_335" fill-rule="nonzero" fill="rgb(42.352941%,38.823529%,100%)" d="m322.94922,520.59375l-252.27734,-1.23047l-25.06641,-58.87109l88.63672,-6.44531l-15.44922,-64.54688l175.3125,-22.75l-167.875,-58.4375l14.82812,-3.52734l269.94532,44.09765l-14.86719,100.73047l-21.25,55.35547l-51.9375,15.625zm0,0"/>
   <path id="svg_336" fill-rule="nonzero" fill="rgb(42.352941%,38.823529%,100%)" d="m74.53906,494.70313c0,0 15.48047,-2.47657 24.76563,8.47265c0,0 -6.8086,5.375 -21.46094,-2.0664l-3.30469,-6.40625zm0,0"/>
   <path id="svg_337" fill-rule="nonzero" fill="rgb(42.352941%,38.823529%,100%)" d="m72.91797,494.46094c0,0 -9.875,12.17187 -5.01172,25.71875c0,0 8.05078,-3.22266 8.92578,-19.65235l-3.91406,-6.0664zm0,0"/>
   <path id="svg_338" fill-rule="nonzero" fill="rgb(42.352941%,38.823529%,100%)" d="m64.04297,474.45313c0,0 6.19141,-11.3711 30.95703,4.54687c0,0 -3.30078,7.64453 -14.23828,7.02734c-10.9375,-0.62109 -13.82813,-5.58203 -16.71875,-11.57421zm0,0"/>
   <path id="svg_339" fill-rule="nonzero" fill="rgb(42.352941%,38.823529%,100%)" d="m62.44531,473.63281c0,0 -12.84765,-1.47265 -14.09375,27.97266c0,0 8.14453,1.69141 13.92969,-7.625c5.78906,-9.3125 3.41406,-14.53906 0.16406,-20.34766zm0,0"/>
   <path id="svg_340" fill-rule="nonzero" fill="rgb(42.352941%,38.823529%,100%)" d="m54.96484,450.14453c0,0 7.22266,-20.04297 33.4336,-5.78515c0,0 -5.98828,18.39062 -30.75,12.60546l-2.6836,-6.82031zm0,0"/>
   <path id="svg_341" fill-rule="nonzero" fill="rgb(42.352941%,38.823529%,100%)" d="m46.91406,420.17969c0,0 13.6211,-20.25 37.76953,-1.47656c0,0 -8.46093,19.01171 -35.70312,8.67968l-2.06641,-7.20312zm0,0"/>
   <path id="svg_342" fill-rule="nonzero" fill="rgb(42.352941%,38.823529%,100%)" d="m44.02734,391.66406c0,0 15.89063,-18.60547 39.80079,0c0,0 -15.06641,16.32422 -39.80079,4.75391l0,-4.75391zm0,0"/>
   <path id="svg_343" fill-rule="nonzero" fill="rgb(42.352941%,38.823529%,100%)" d="m41.55078,363.96484c0,0 16.09766,-19.42187 39.00391,-1.03125c0,0 -18.16016,17.15235 -39.00391,5.57813l0,-4.54688zm0,0"/>
   <path id="svg_344" fill-rule="nonzero" fill="rgb(42.352941%,38.823529%,100%)" d="m42.99609,339.375c0,0 16.94922,-25.00391 38.38282,-8.05859c0,0 -18.16016,21.49218 -38.38282,12.8125l0,-4.75391zm0,0"/>
   <path id="svg_345" fill-rule="nonzero" fill="rgb(42.352941%,38.823529%,100%)" d="m46.91406,310.65234c0,0 17.95703,-24.79687 38.80078,-5.78515c0,0 -21.25781,21.49219 -38.80078,10.33203l0,-4.54688zm0,0"/>
   <path id="svg_346" fill-rule="nonzero" fill="rgb(42.352941%,38.823529%,100%)" d="m52.90234,284.97656c0,0 21.25391,-23.30468 39.79688,-14.01953c0,0 -22.14453,24.75 -40.72656,20.20703l0.92968,-6.1875zm0,0"/>
   <path id="svg_347" fill-rule="nonzero" fill="rgb(42.352941%,38.823529%,100%)" d="m60.32813,260.63672c0,0 24.53125,-28.54297 38.80078,-19.00781c0,0 -18.07422,22.13672 -40.53907,24.35156l1.73829,-5.34375zm0,0"/>
   <path id="svg_348" fill-rule="nonzero" fill="rgb(42.352941%,38.823529%,100%)" d="m71.05469,232.41016c0,0 21.46875,-23.3086 37.15234,-17.51953c0,0 -18.36719,24.17578 -40.03515,24.79687l2.88281,-7.27734zm0,0"/>
   <path id="svg_349" fill-rule="nonzero" fill="rgb(42.352941%,38.823529%,100%)" d="m80.76172,206.00391c0,0 23.73047,-22.31641 34.05078,-18.39063c0,0 -17.12891,24.79688 -35.08203,23.35156l1.03125,-4.96093zm0,0"/>
   <path id="svg_350" fill-rule="nonzero" fill="rgb(42.352941%,38.823529%,100%)" d="m90.25391,181.62109c0,0 20.42968,-26.66406 31.58203,-24.59765c0,0 -12.39063,23.76953 -31.58203,27.30469l0,-2.70704zm0,0"/>
   <path id="svg_351" fill-rule="nonzero" fill="rgb(42.352941%,38.823529%,100%)" d="m100.55859,148.74219c0,0 18.0586,-20.4375 27.81641,-20.39063c0,0 -14.25391,27.30469 -28.5625,27.05469l0.74609,-6.66406zm0,0"/>
   <path id="svg_352" fill-rule="nonzero" fill="rgb(42.352941%,38.823529%,100%)" d="m106.66016,126.85156l17.44531,-42.5664c0,0 0.87109,38.48047 -19.66406,50.46484l2.21875,-7.89844zm0,0"/>
   <path id="svg_353" fill-rule="nonzero" fill="rgb(42.352941%,38.823529%,100%)" d="m113.74219,79.90625c0,0 2.89062,-35.54687 1.03515,-38.44141c0,0 12.46875,29.5586 -1.15234,54.14844l0.11719,-15.70703zm0,0"/>
   <path id="svg_354" fill-rule="nonzero" fill="rgb(42.352941%,38.823529%,100%)" d="m54.28516,449.67188c0,0 -18.08594,-11.22657 -29.79688,16.23437c0,0 16.09766,10.70313 31.92969,-9.23047l-2.13281,-7.0039zm0,0"/>
   <path id="svg_355" fill-rule="nonzero" fill="rgb(42.352941%,38.823529%,100%)" d="m46.33203,419.03516c0,0 -22.18359,-10.13282 -32.94531,18.53906c0,0 17.13672,11.80859 34.96484,-11.28906l-2.01953,-7.25zm0,0"/>
   <path id="svg_356" fill-rule="nonzero" fill="rgb(42.352941%,38.823529%,100%)" d="m42.99609,393.36719c0,0 -15.89062,-18.60156 -39.80078,0c0,0 15.0625,16.32812 39.80078,4.7539l0,-4.7539zm0,0"/>
   <path id="svg_357" fill-rule="nonzero" fill="rgb(42.352941%,38.823529%,100%)" d="m41.00391,363.96484c0,0 -16.09766,-19.42187 -39.00391,-1.03125c0,0 18.16016,17.15235 39.00391,5.57813l0,-4.54688zm0,0"/>
   <path id="svg_358" fill-rule="nonzero" fill="rgb(42.352941%,38.823529%,100%)" d="m42.99609,340.08594c0,0 -11.29296,-28.00781 -35.83593,-15.96485c0,0 13.26562,24.83594 34.83203,20.61329l1.0039,-4.64844zm0,0"/>
   <path id="svg_359" fill-rule="nonzero" fill="rgb(42.352941%,38.823529%,100%)" d="m48.33984,310.51172c0,0 -11.22656,-28.49219 -36.11718,-15.28125c0,0 15.24218,26.11719 35.01172,19.67969l1.10546,-4.39844zm0,0"/>
   <path id="svg_360" fill-rule="nonzero" fill="rgb(42.352941%,38.823529%,100%)" d="m55.29688,285.11719c0,0 -4.42188,-31.23828 -25.0625,-34.03516c0,0 4.3789,32.94531 22.28125,39.66797l2.78125,-5.63281zm0,0"/>
   <path id="svg_361" fill-rule="nonzero" fill="rgb(42.352941%,38.823529%,100%)" d="m60.85156,260.69922c0,0 -1.72265,-37.64063 -18.78515,-38.95313c0,0 0.57422,28.56641 16.86328,44.28125l1.92187,-5.32812zm0,0"/>
   <path id="svg_362" fill-rule="nonzero" fill="rgb(42.352941%,38.823529%,100%)" d="m72.82422,231.35547c0,0 -5.08594,-31.30078 -21.375,-35.12109c0,0 2.01953,30.30859 19.75781,42.80078l1.61719,-7.67969zm0,0"/>
   <path id="svg_363" fill-rule="nonzero" fill="rgb(42.352941%,38.823529%,100%)" d="m82.69141,206.26172c0,0 -0.16797,-32.60547 -10.11719,-37.39453c0,0 -6.17188,29.51953 7.23437,41.55859l2.88282,-4.16406zm0,0"/>
   <path id="svg_364" fill-rule="nonzero" fill="rgb(42.352941%,38.823529%,100%)" d="m91.01172,181.25c0,0 -1.39063,-33.57031 -11.69531,-38.30078c0,0 -3.52344,26.56641 10.15625,40.5l1.53906,-2.19922zm0,0"/>
   <path id="svg_365" fill-rule="nonzero" fill="rgb(42.352941%,38.823529%,100%)" d="m101.99609,151.42188c0,0 -0.05859,-27.3086 -7.41406,-33.71485c0,0 -7.3125,29.91406 3.57422,39.20313l3.83984,-5.48828zm0,0"/>
   <path id="svg_366" fill-rule="nonzero" fill="rgb(42.352941%,38.823529%,100%)" d="m105.79688,125.50781l-7.15625,-45.44531c0,0 -9.71875,37.23828 7.49609,53.65234l-0.33984,-8.20703zm0,0"/>
   <path id="svg_367" fill-rule="nonzero" fill="rgb(42.352941%,38.823529%,100%)" d="m107.19141,80.33594c0,0 -18.36719,-30.55469 -17.99219,-33.94922c0,0 1.95312,32.02344 25.05859,47.97266l-7.0664,-14.02344zm0,0"/>
   <path id="svg_368" fill-rule="nonzero" fill="rgb(42.352941%,38.823529%,100%)" d="m109.34375,71.30859c0,0 -17.33594,-43.39453 -25.17578,-46.90625c0,0 24.76172,12.60547 26.62109,45.66797l-1.44531,1.23828zm0,0"/>
   <path id="svg_369" fill-rule="nonzero" fill="rgb(26.666667%,25.098039%,32.54902%)" d="m99.72656,155.66406l-1.1875,-0.36328c14.62891,-47.76953 18.27735,-78.22656 10.28125,-85.86719l0.84766,-0.89843c8.48437,8.05859 5.04297,38.18359 -9.94141,87.1289zm0,0"/>
   <path id="svg_370" fill-rule="nonzero" fill="rgb(26.666667%,25.098039%,32.54902%)" d="m59.4375,267.51563l-1.75391,-0.625c1.55469,-4.37891 3.23047,-8.82032 4.98438,-13.19532c15.26953,-38.11328 28.27344,-73.5664 36.60937,-100.78515l1.52344,-0.73828c-8.35156,27.26953 -21.125,64.08203 -36.41015,102.24609c-1.7461,4.29297 -3.41016,8.71484 -4.95313,13.09766zm0,0"/>
   <path id="svg_371" fill-rule="nonzero" fill="rgb(26.666667%,25.098039%,32.54902%)" d="m96.34766,530.45313c-0.23438,-0.25782 -23.94532,-26.9961 -40.47657,-72.64063c-9.6875,-26.72266 -15.07812,-54.81641 -15.97265,-83.23437c-1.13281,-35.51954 6.30859,-75.17969 19.0625,-111.21094l1.38281,1.625c-28.625,80.86328 -17.25391,150.15625 -2.16406,191.88281c16.35156,45.23047 39.79687,71.67578 40.02734,71.94141l-1.85937,1.63672zm0,0"/>
   <path id="svg_372" fill-rule="nonzero" fill="rgb(83.529412%,83.921569%,85.882353%)" d="m466.87891,473.6875c0,0 -16.71094,20.41797 -3.44141,51.28906l-133.40625,57.9336l-12.80469,2.6875l-5.89453,-25.83203l3.94141,-32.59766l0,-17.8125l151.60547,-35.66797zm0,0"/>
   <path id="svg_373" fill-rule="nonzero" fill="rgb(42.352941%,38.823529%,100%)" d="m45.60547,460.49219l184.64453,-33.70703l244.66016,39.02734l-151.96094,54.78125l-277.34375,-60.10156zm0,0"/>
   <path id="svg_374" fill-rule="nonzero" fill="rgb(42.352941%,38.823529%,100%)" d="m45.60547,460.49219l184.64453,-33.70703l244.66016,39.02734l-151.96094,54.78125l-277.34375,-60.10156zm0,0"/>
   <path id="svg_375" fill-rule="nonzero" fill="rgb(42.352941%,38.823529%,100%)" d="m45.60547,460.48438c0,0 -17.26953,32.75781 2.62891,63.01562l273.8125,59.41016c0,0 -16.9961,-26.09375 0.8789,-62.31641l-277.32031,-60.10937zm0,0"/>
   <use x="2" y="11" id="svg_376" mask="url(#mask1)" xlink:href="#surface8"/>
   <use x="2" y="11" id="svg_377" mask="url(#mask2)" xlink:href="#surface11"/>
   <path id="svg_378" fill-rule="nonzero" fill="rgb(42.352941%,38.823529%,100%)" d="m322.04688,582.91016l152.86328,-65.3125c0,0 8.55078,1.84375 3.02343,8.11718c-5.52734,6.27344 -152.9375,63.46875 -152.9375,63.46875l-276.76171,-65.68359l273.8125,59.41016zm0,0"/>
   <use x="2" y="11" id="svg_379" mask="url(#mask3)" xlink:href="#surface14"/>
   <use x="2" y="11" id="svg_380" mask="url(#mask4)" xlink:href="#surface17"/>
   <use x="2" y="11" id="svg_381" mask="url(#mask5)" xlink:href="#surface20"/>
   <use x="2" y="11" id="svg_382" mask="url(#mask6)" xlink:href="#surface23"/>
   <use x="2" y="11" id="svg_383" mask="url(#mask7)" xlink:href="#surface26"/>
   <use x="2" y="11" id="svg_384" mask="url(#mask8)" xlink:href="#surface29"/>
   <use x="2" y="11" id="svg_385" mask="url(#mask9)" xlink:href="#surface32"/>
   <use x="2" y="11" id="svg_386" mask="url(#mask10)" xlink:href="#surface35"/>
   <use x="2" y="11" id="svg_387" mask="url(#mask11)" xlink:href="#surface38"/>
   <path id="svg_388" fill-rule="nonzero" fill="rgb(42.352941%,38.823529%,100%)" d="m474.91016,465.8125c0,0 6.71093,2.70703 2.77343,6.89063c-3.9375,4.1875 -154.75781,47.89062 -154.75781,47.89062l151.98438,-54.78125zm0,0"/>
   <path id="svg_389" fill-rule="nonzero" fill="rgb(83.529412%,83.921569%,85.882353%)" d="m540.05859,402.70313c0,0 -16.69921,20.41406 -3.43359,51.29296l-133.40625,57.9336l-12.80078,2.70312l-5.89844,-25.83203l4.00391,-32.58984l0,-17.83985l151.53515,-35.66796zm0,0"/>
   <path id="svg_390" fill-rule="nonzero" fill="rgb(22.745098%,21.568627%,40.784314%)" d="m118.79297,389.5l184.63672,-33.69531l244.67187,39.02734l-151.96484,54.78125l-277.34375,-60.11328zm0,0"/>
   <path id="svg_391" fill-rule="nonzero" fill="rgb(22.745098%,21.568627%,40.784314%)" d="m118.76172,389.5c0,0 -17.27344,32.76172 2.625,63.01953l273.8125,59.41016c0,0 -16.98828,-26.11719 0.90625,-62.32422l-277.34375,-60.10547zm0,0"/>
   <use x="2" y="11" id="svg_392" mask="url(#mask12)" xlink:href="#surface41"/>
   <use x="2" y="11" id="svg_393" mask="url(#mask13)" xlink:href="#surface44"/>
   <path id="svg_394" fill-rule="nonzero" fill="rgb(22.745098%,21.568627%,40.784314%)" d="m395.23047,511.92969l152.87109,-65.3125c0,0 8.54297,1.84375 3.01563,8.11719c-5.53125,6.27343 -152.9375,63.46875 -152.9375,63.46875l-276.76172,-65.6836l273.8125,59.41016zm0,0"/>
   <use x="2" y="11" id="svg_395" mask="url(#mask14)" xlink:href="#surface47"/>
   <use x="2" y="11" id="svg_396" mask="url(#mask15)" xlink:href="#surface50"/>
   <use x="2" y="11" id="svg_397" mask="url(#mask16)" xlink:href="#surface53"/>
   <use x="2" y="11" id="svg_398" mask="url(#mask17)" xlink:href="#surface56"/>
   <use x="2" y="11" id="svg_399" mask="url(#mask18)" xlink:href="#surface59"/>
   <use x="2" y="11" id="svg_400" mask="url(#mask19)" xlink:href="#surface62"/>
   <use x="2" y="11" id="svg_401" mask="url(#mask20)" xlink:href="#surface65"/>
   <use x="2" y="11" id="svg_402" mask="url(#mask21)" xlink:href="#surface68"/>
   <use x="2" y="11" id="svg_403" mask="url(#mask22)" xlink:href="#surface71"/>
   <path id="svg_404" fill-rule="nonzero" fill="rgb(22.745098%,21.568627%,40.784314%)" d="m548.10156,394.83203c0,0 6.69922,2.70703 2.76953,6.88281c-3.92578,4.17969 -154.73437,47.89063 -154.73437,47.89063l151.96484,-54.77344zm0,0"/>
   <path id="svg_405" fill-rule="nonzero" fill="rgb(83.529412%,83.921569%,85.882353%)" d="m546.98828,321.5c0,0 -16.71094,36.66016 -3.4414,67.53125l-133.40625,41.69531l-12.77344,2.70703l-5.89453,-25.82812l3.9414,-32.59766l0,-17.83984l151.57422,-35.66797zm0,0"/>
   <path id="svg_406" fill-rule="nonzero" fill="rgb(42.352941%,38.823529%,100%)" d="m125.74219,308.30469l184.64453,-33.70313l244.67187,39.02735l-151.97265,54.78125l-277.34375,-60.10547zm0,0"/>
   <path id="svg_407" fill-rule="nonzero" fill="rgb(42.352941%,38.823529%,100%)" d="m125.74219,308.30078c0,0 -17.29688,32.75781 2.60156,63.01563l273.8125,59.41015c0,0 -16.99609,-26.11718 0.90234,-62.3164l-277.3164,-60.10938zm0,0"/>
   <use x="2" y="11" id="svg_408" mask="url(#mask23)" xlink:href="#surface74"/>
   <use x="2" y="11" id="svg_409" mask="url(#mask24)" xlink:href="#surface77"/>
   <path id="svg_410" fill-rule="nonzero" fill="rgb(42.352941%,38.823529%,100%)" d="m402.1875,430.72656l152.86328,-49.07812c0,0 8.55078,1.84765 3.02344,8.11719c-5.52734,6.27343 -152.9375,47.23437 -152.9375,47.23437l-276.76172,-65.68359l273.8125,59.41015zm0,0"/>
   <use x="2" y="11" id="svg_411" mask="url(#mask25)" xlink:href="#surface80"/>
   <use x="2" y="11" id="svg_412" mask="url(#mask26)" xlink:href="#surface83"/>
   <use x="2" y="11" id="svg_413" mask="url(#mask27)" xlink:href="#surface86"/>
   <use x="2" y="11" id="svg_414" mask="url(#mask28)" xlink:href="#surface89"/>
   <use x="2" y="11" id="svg_415" mask="url(#mask29)" xlink:href="#surface92"/>
   <use x="2" y="11" id="svg_416" mask="url(#mask30)" xlink:href="#surface95"/>
   <use x="2" y="11" id="svg_417" mask="url(#mask31)" xlink:href="#surface98"/>
   <use x="2" y="11" id="svg_418" mask="url(#mask32)" xlink:href="#surface101"/>
   <use x="2" y="11" id="svg_419" mask="url(#mask33)" xlink:href="#surface104"/>
   <path id="svg_420" fill-rule="nonzero" fill="rgb(42.352941%,38.823529%,100%)" d="m555.05078,313.62891c0,0 6.70703,2.70703 2.77344,6.89062c-3.9375,4.1836 -154.73828,47.89063 -154.73828,47.89063l151.96484,-54.78125zm0,0"/>
   <path id="svg_421" fill-rule="nonzero" fill="rgb(42.352941%,38.823529%,100%)" d="m230.79297,89.59766c0,0 -28.00781,-1.69141 -24.73438,17.98437c0,0 -0.65625,3.47656 2.49219,5.05469c0,0 0.05078,-1.47266 2.875,-0.96484c1.00781,0.17187 2.03125,0.22265 3.05078,0.14843c1.375,-0.09375 2.67969,-0.63281 3.72266,-1.53515c0,0 7.87891,-3.26172 10.94531,-16.16407c0,0 2.26953,-2.8125 2.21094,-3.53515l-4.74609,2.02344c0,0 1.61328,3.41796 0.34375,6.25781c0,0 -0.15235,-6.13281 -1.06641,-5.99219c-0.18359,0 -2.45703,1.1875 -2.45703,1.1875c0,0 2.78125,5.95703 0.67969,10.28125c0,0 0.79687,-7.33594 -1.54688,-9.85156l-3.33203,1.94531c0,0 3.25,6.14844 1.04687,11.16797c0,0 0.56641,-7.69922 -1.74609,-10.69531l-3.02344,2.36328c0,0 3.0586,6.05859 1.19532,10.22265c0,0 -0.2461,-8.96093 -1.84375,-9.64062c0,0 -2.64454,2.33203 -3.04297,3.29297c0,0 2.09375,4.42578 0.78906,6.72265c0,0 -0.78906,-5.97265 -1.47656,-6c0,0 -2.62891,3.95704 -2.90235,6.64063c0.125,-2.50391 0.90625,-4.92969 2.26172,-7.03906c-1.51562,0.28515 -2.91406,1.01172 -4.02344,2.08984c0,0 0.40625,-2.79687 4.67969,-3.04297c0,0 2.17578,-3.0039 2.75781,-3.17969c0,0 -4.2539,-0.36328 -6.82421,0.78125c0,0 2.26953,-2.63281 7.59765,-1.47656l2.94922,-2.43359c0,0 -5.58984,-0.73828 -7.96094,0.08203c0,0 2.73438,-2.33203 8.76172,-0.63672l3.25,-1.94141c0,0 -4.76562,-1.02343 -7.60547,-0.65625c0,0 2.99219,-1.61718 8.5586,0.13282l2.3125,-1.03907c0,0 -3.48438,-0.6875 -4.51172,-0.79687c-1.02344,-0.11328 -1.07422,-0.39063 -1.07422,-0.39063c2.21094,-0.36718 4.48437,-0.10937 6.55859,0.73438c0,0 4.97657,-1.79297 4.87891,-2.10156zm0,0"/>
   <use x="2" y="11" id="svg_422" mask="url(#mask34)" xlink:href="#surface107"/>
   <use x="2" y="11" id="svg_423" mask="url(#mask35)" xlink:href="#surface110"/>
   <use x="2" y="11" id="svg_424" mask="url(#mask36)" xlink:href="#surface113"/>
   <use x="2" y="11" id="svg_425" mask="url(#mask37)" xlink:href="#surface116"/>
   <use x="2" y="11" id="svg_426" mask="url(#mask38)" xlink:href="#surface119"/>
   <use x="2" y="11" id="svg_427" mask="url(#mask39)" xlink:href="#surface122"/>
   <use x="2" y="11" id="svg_428" mask="url(#mask40)" xlink:href="#surface125"/>
   <use x="2" y="11" id="svg_429" mask="url(#mask41)" xlink:href="#surface128"/>
   <use x="2" y="11" id="svg_430" mask="url(#mask42)" xlink:href="#surface131"/>
   <use x="2" y="11" id="svg_431" mask="url(#mask43)" xlink:href="#surface134"/>
   <path id="svg_432" fill-rule="nonzero" fill="rgb(42.352941%,38.823529%,100%)" d="m446.13672,562.08594c0,0 -27.90234,14.43359 -13.48828,31.4375c0,0 1.35937,3.6914 5.27734,3.43359c0,0 -0.78125,-1.43359 2.21094,-2.57812c1.06641,-0.41016 2.07812,-0.94922 3.01562,-1.60157c1.26563,-0.875 2.21485,-2.14453 2.69922,-3.60937c0,0 5.70313,-7.64453 1.28125,-21.79297c0,0 0.57422,-4 0.07422,-4.64844l-3.39062,4.65625c0,0 3.5,2.35547 3.90625,5.81641c0,0 -3.6875,-5.80859 -4.42188,-5.16406c-0.16406,0.13281 -1.67969,2.54297 -1.67969,2.54297c0,0 6.07032,4.125 6.51954,9.48437c0,0 -3.41797,-7.50391 -7.10938,-8.57422l-2.11719,3.77735c0,0 6.63282,4.04296 7.3711,10.125c0,0 -3.85547,-7.71094 -7.78907,-9.26954l-1.55859,3.99219c0,0 6.39844,4.07422 6.98828,9.13672c0,0 -5.35156,-8.46484 -7.27344,-8.19922c0,0 -1.21093,3.75 -1.04687,4.91016c0,0 4.51953,3.02344 4.59766,6c0,0 -4.17188,-5.27735 -4.8125,-4.92969c0,0 -0.26563,5.30469 1.01953,8.06641c0,0 -2.21094,-3.94141 -1.85157,-8.06641c-1.29296,1.14453 -2.22265,2.64063 -2.67578,4.30859c0,0 -1.19922,-2.91406 2.75782,-5.60156c0,0 0.375,-4.125 0.83203,-4.63672c0,0 -4.28125,2.09766 -6.10157,4.66407c0,0 0.66797,-3.82813 6.47657,-5.73047l1.47656,-4.04688c0,0 -5.80859,2.46485 -7.60156,4.63672c0,0 1.28906,-3.80078 8.05859,-5.625l2.00391,-3.69141c0,0 -5.16016,1.74219 -7.67969,3.69141c0,0 1.95312,-3.26953 8.29687,-4.77344l1.62891,-2.32812c0,0 -3.74219,1.33594 -4.78906,1.8164c-1.04688,0.48047 -1.25391,0.2461 -1.25391,0.2461c1.91406,-1.6211 4.23828,-2.67969 6.71485,-3.0586c0,0 3.6914,-4.5664 3.43359,-4.8164zm0,0"/>
   <path id="svg_433" fill-rule="nonzero" fill="url(#linear0)" d="m528.96094,289.44141c-4.82031,-13.11328 -31.35547,-14.34375 -42.86719,-11.00391c-8.18359,2.38672 -25.42969,5.07031 -34.64062,6.42188l-0.59766,-0.56641c1.19141,-0.35547 1.22266,-1.22656 1.07422,-2.51953c-0.08594,-1.69922 -0.0586,-3.40625 0.07422,-5.10547c5.64453,1.75781 10.67187,-2.39844 10.67187,-2.39844c6.63281,-2.95312 4.85156,-15.58594 6.11719,-19.03906c0.95312,-2.58594 1.97656,-17.80078 2.43359,-25.39063l0.09766,0l0.05078,-2.54296c0.06641,-1.10157 0.09375,-1.74219 0.09375,-1.74219c0,0 0.64844,-18.55469 1.91797,-22.3125c1.17969,-3.45313 2.13672,-20.85547 2.28516,-23.61328c0,-0.23828 0,-0.36328 0,-0.36328l-0.09766,-1.60938c0.06641,-1.17187 0.09766,-2.48047 0.08984,-3.85156c0,-6.3086 -0.65625,-14.25781 -0.73828,-15.54297c0,-0.18359 0,-0.40625 0,-0.67188c0.05078,-2.6914 -0.28515,-16.18359 -11.74609,-21.28515c-4.22656,-1.88672 -9.30469,-4.13672 -14.21875,-6.33203c-1.26953,-10.95703 -4.16406,-21.85938 -3.91406,-32.89844c0,-1.66016 0.14843,-3.32031 0.30859,-4.97266c0,0.47657 -0.05078,0.96485 -0.05859,1.47266c0,1.07031 0,2.14844 0,3.21875c0.43359,-13.80859 5.64453,-27.69141 5.16015,-41.20313c-0.04297,1.32032 -0.14062,2.64844 -0.26562,3.97657c0.2539,-4.57032 -0.22266,-9.15235 -1.41407,-13.57032c-0.4414,-1.55859 -1.03906,-3.16406 -2.3164,-4.20703c-1.20313,-0.83593 -2.58594,-1.38672 -4.03906,-1.60156c-3.48829,-0.89453 -7.03125,-1.55469 -10.60547,-1.97656c-0.54297,-1.66406 -1.34766,-3.23438 -2.38672,-4.64453c-7.47266,-10.26953 -18.54688,-19.92578 -31.63672,-22.13672c-6.56641,-1.10938 -14.12109,-0.1875 -18.58594,4.51562c-0.46875,0.41407 -0.90625,0.85547 -1.3125,1.32813c-2.40234,2.87109 -3.43359,6.64062 -5.89844,9.5039c-0.16015,0.19141 -0.34375,0.3711 -0.51953,0.55469c-4.82031,4.31641 -12.33203,5.21875 -17.6914,9.09375c-0.94532,0.69531 -1.82813,1.46485 -2.64453,2.3086c-2.16016,2.14062 -4.09766,4.5 -5.78125,7.03125c-2.41016,3.39843 -4.88672,6.93359 -5.65235,10.98437c-1.53906,8.11719 3.98047,15.81641 5.00391,23.98438c2.28515,18.28125 -17.91797,34.5 -14.08985,52.53906c1.01954,4.42969 3.27344,8.48047 6.5,11.68359c-7.8789,7.14453 -14.58593,14.07422 -14.58593,14.07422l0,0.41016l-1.2461,0l0.125,1.47656l-0.125,0l0.6836,8.00781l-0.6836,11.66016c0,0 0,0.125 0,0.36328l0,0.375c0,0 0,0.125 0,0.36328l0.04297,0c0.23047,4.27344 1.13672,19.63672 2.21094,22.87891c1.26953,3.7539 1.91016,22.30859 1.91016,22.30859c0,0 1.40234,26.22266 2.68359,29.69141c1.28125,3.46875 -0.53906,16.0664 6.11719,19.03906c1.94531,1.49609 4.2539,2.45312 6.68359,2.77344c-0.33594,2.76172 -0.125,4.76172 0.97266,5.38672c0.47265,0.27734 1.0039,0.42968 1.55078,0.44531c-0.45313,0.67187 -0.85547,1.37109 -1.20313,2.10156c-2.64062,-0.27344 -5.23828,-0.88672 -7.72265,-1.82031c-7.15235,-2.95313 -30.875,-9.59375 -37.76953,-4.92578c-6.89063,4.67187 -23.47266,8.91015 -15.81641,27.71484c7.66016,18.80469 11.22656,19.27734 11.22656,19.27734c2.35547,1.71094 4.42578,3.79297 6.125,6.16016c2.30078,3.46094 23.72656,11.38281 29.08203,11.38281c2.27735,-0.03515 4.55469,0.07813 6.82032,0.33594c0,0 -5.81641,5.10938 -5.04297,8.07422c0.77343,2.96875 -1.76953,26.71875 -1.76953,26.71875c0,0 5.89843,5.94531 8.41796,-1.85547l0.08985,0.12109c0.47265,0.64063 3.01953,3.53907 7.82031,-0.12109c1.96094,-1.49219 4.04688,-2.8125 6.23438,-3.95312l23.23046,-3.29297c2.42188,-0.15235 4.85157,-0.16797 7.27735,-0.05078c3.68359,0.30078 7.30078,-1.88282 9.57812,-3.57422c4.81641,1.83203 10.22657,3.83203 12.79688,4.5625c5.21875,1.47656 29.20312,7.91797 34.8125,5.90234c1.16406,-0.46094 2.19922,-1.20312 3.01953,-2.15234l5.35156,0.16797l-2.5039,0.5039c0,0 4.8789,0.07813 11.51171,0.16797l-0.28125,0.16406l8.32032,-0.07422c12.17578,0.10938 25.85547,0.14844 27.65625,-0.25781c2.8164,-0.6289 17.44531,-0.1875 21.75781,0l1.19922,0c0,0 16.07422,-3.21094 9.4414,-19.54297c-5.09765,-12.54687 -20.77734,-16.1914 -27.73437,-17.19531c1.96094,-0.39062 3.64844,-0.69531 4.76953,-0.87109c4.85547,-0.73828 14.29297,-5.16797 15.05859,-6.67969c0.76563,-1.51172 8.67579,-5.90234 10.71485,-8.40625c2.04297,-2.5 7.87109,-20.23438 3.03125,-33.35156zm-133.14844,36.70312l-0.78906,0.25781l-0.53125,0.17579l-1.01563,1.0039c-0.8125,-0.54687 -1.67968,-1.12109 -2.58984,-1.71094c1.60156,0.09375 3.24609,0.19141 4.92578,0.27344zm70.24609,20.79688zm0,0"/>
   <path id="svg_434" fill-rule="nonzero" fill="rgb(74.509804%,43.529412%,44.705882%)" d="m442.80469,248.32813c0,0 11.27734,29.51953 17.6914,26.57031c6.41016,-2.95313 4.67188,-15.5 5.89454,-18.9375c1.22656,-3.44141 2.58203,-29.52344 2.58203,-29.52344c0,0 0.61718,-18.44922 1.83984,-22.18359c1.13672,-3.42969 2.05859,-20.73828 2.21094,-23.46094c0,-0.23438 0,-0.35938 0,-0.35938l-1.21485,-21.40234l-6.88281,-1.72266l-15.96484,5.90625l-2.21094,12.64063l-0.86328,4.9375l-0.36719,2.10547l-2.71484,65.42969zm0,0"/>
   <use x="2" y="11" id="svg_435" mask="url(#mask44)" xlink:href="#surface137"/>
   <path id="svg_436" fill-rule="nonzero" fill="rgb(74.509804%,43.529412%,44.705882%)" d="m354.61719,249.62109c0,0 -11.27735,29.51954 -17.6875,26.56641c-6.41406,-2.95312 -4.67188,-15.49609 -5.89844,-18.9375c-1.22266,-3.4375 -2.57812,-29.51953 -2.57812,-29.51953c0,0 -0.61719,-18.44922 -1.84375,-22.18359c-1.13282,-3.4336 -2.05469,-20.73829 -2.21094,-23.46094c0,-0.23828 0,-0.36328 0,-0.36328l1.22265,-21.40235l6.88672,-1.71875l15.96485,5.90235l2.21093,12.64453l0.86329,4.9375l0.36718,2.10156l2.70313,65.43359zm0,0"/>
   <path id="svg_437" fill-rule="nonzero" fill="rgb(24.313725%,21.568627%,22.745098%)" d="m402.87891,91.64063l25.17187,0l0,39.28515l-25.17187,0l0,-39.28515zm0,0"/>
   <use x="2" y="11" id="svg_438" mask="url(#mask45)" xlink:href="#surface140"/>
   <path id="svg_439" fill-rule="nonzero" fill="rgb(29.411765%,29.411765%,35.686275%)" d="m350.19531,279.02344c0,0 -8.60156,9.46875 -5.41015,11.1875c3.1914,1.71875 23.83593,33.94922 23.83593,33.94922c0,0 67.8086,8.35937 80.59766,-4.1875c12.78906,-12.54297 12.53125,-34.95703 12.53125,-34.95703c0,0 -10.27734,2.21484 -11.39453,1.01171c-1.12109,-1.20312 -7.27734,-7.0039 -7.27734,-7.0039c0,0 -86.98438,-5.28516 -92.88282,0zm0,0"/>
   <use x="2" y="11" id="svg_440" mask="url(#mask46)" xlink:href="#surface143"/>
   <path id="svg_441" fill-rule="nonzero" fill="rgb(74.509804%,43.529412%,44.705882%)" d="m472.26563,159.33984l-22.10938,17.71094l-6.6875,0.48828l-2.45312,0.17578l-41.22266,3.02735l-42.75,-3.12891l-6.35938,-0.46484l-8.10937,-0.58985l-16.95313,-16.23828c0,0 12,-12.87109 22.51172,-21.55468c4.14063,-3.4336 8.05469,-6.20704 10.90625,-7.30079l0.48828,-0.16796c1.79297,-0.70313 3.39454,-1.82032 4.67188,-3.26172c8.30078,-8.57032 15.97266,-29.71485 15.97266,-29.71485c0,0 36.60937,-18.9375 32.1875,5.90625c-4.42188,24.83985 16.45703,18.69922 16.45703,18.69922l6.88281,3.14453l2.72266,1.2461l6.93359,3.18359l15.64844,7.1875c12.27734,5.66016 11.26172,21.65234 11.26172,21.65234zm0,0"/>
   <use x="2" y="11" id="svg_442" mask="url(#mask47)" xlink:href="#surface146"/>
   <use x="2" y="11" id="svg_443" mask="url(#mask48)" xlink:href="#surface149"/>
   <path id="svg_444" fill-rule="nonzero" fill="rgb(90.588235%,78.039216%,79.215686%)" d="m472.31641,182.08594l-147.91797,0c0,-0.23828 0,-0.36328 0,-0.36328l1.22265,-21.40235c0,0 12,-12.87109 22.51172,-21.55468l92.86719,-3.69141l4.32031,-4.5625l15.64844,7.1875c12.28516,5.65625 11.29688,21.64844 11.29688,21.64844c0,0 1.67968,18.53125 0.05078,22.73828zm0,0"/>
   <use x="2" y="11" id="svg_445" mask="url(#mask49)" xlink:href="#surface152"/>
   <path id="svg_446" fill-rule="nonzero" fill="rgb(90.588235%,78.039216%,79.215686%)" d="m374.36328,123.54688c0,0 23.33594,29.76953 54.41797,-0.61329c31.08203,-30.38281 3.44141,67.76954 3.44141,67.76954l-67.07032,7.97265l9.21094,-75.1289zm0,0"/>
   <use x="2" y="11" id="svg_447" mask="url(#mask50)" xlink:href="#surface155"/>
   <path id="svg_448" fill-rule="nonzero" fill="rgb(90.588235%,78.039216%,79.215686%)" d="m438.38281,127.29688l2.46875,37.70312l2.64844,12.54688l2.01953,9.59375c0,0 5.16016,73.80078 3.6836,77.49218c-1.47266,3.6875 0.73828,6.64063 1.04687,8.60157c0.30859,1.96484 -0.30859,6.89453 -0.06641,9.10937c0.24219,2.21484 0,3.19531 -5.64453,2.40625c-5.64843,-0.78906 -13.51953,-2.16406 -13.51953,-2.16406c0,0 -19.89844,1.47656 -26.77734,-0.98047c-6.875,-2.45703 -19.89844,-2.46484 -19.89844,-2.46484c0,0 -19.65625,0.49218 -26.03906,-0.24219c-6.38281,-0.73828 -9.83203,7.87109 -14.00391,5.40625c-4.17187,-2.46485 4.90625,-26.31641 7.85547,-33.20703c2.94922,-6.89453 -3.92969,-24.35547 -3.92969,-24.35547l8.84766,-49.12891l1.96484,-11.13672l0,-35.01172l0.48828,-0.16796c1.79297,-0.70313 3.39454,-1.82032 4.67188,-3.26172l2.21094,35.23047l69.28515,2.46484l0,-39.65234"/>
   <use x="2" y="11" id="svg_449" mask="url(#mask51)" xlink:href="#surface158"/>
   <path id="svg_450" fill-rule="nonzero" fill="rgb(24.313725%,21.568627%,22.745098%)" d="m447.08984,47.87109c-0.42187,-1.54296 -1.0039,-3.14453 -2.21093,-4.17578c-1.15625,-0.83203 -2.48828,-1.3789 -3.89453,-1.59375c-3.35938,-0.88672 -6.77735,-1.54297 -10.23047,-1.96484c-0.49219,-1.64063 -1.23828,-3.19141 -2.21094,-4.59766c-7.22266,-10.21484 -17.91016,-19.84375 -30.48438,-22.02343c-6.58203,-1.14454 -14.20703,-0.11719 -18.42578,5.07812c-2.3125,2.85547 -3.30859,6.64063 -5.64453,9.44531c-4.5039,5.44922 -12.63281,6.1211 -18.30859,10.33203c-3.02735,2.21485 -5.22656,5.42579 -7.3711,8.53907c-2.32031,3.375 -4.71093,6.88672 -5.44531,10.91797c-1.47656,8.05078 3.83985,15.72656 4.82031,23.85156c2.21094,18.17578 -17.24609,34.30078 -13.57031,52.23437c2.14453,10.45703 11.79297,17.82422 21.77344,21.5586c3.51562,1.32031 7.53125,2.63281 9.17578,6.01562c0.73828,1.47656 0.86328,3.17969 1.55469,4.67188c2.32812,4.97265 9.98828,5.16406 14.10156,1.53906c4.10938,-3.62109 5.41016,-9.48047 5.89453,-14.94922c1.97656,-23.88281 -7.57812,-47.47656 -6.46484,-71.41797c0.33203,-7.23828 2.36719,-15.45312 8.84765,-18.73047c8.71875,-4.42968 19.20704,2.95313 28.80079,1.54297c4.54296,11.0625 5.50781,23.27344 2.75781,34.91406c-1.52735,6.3711 -4.16406,12.54688 -4.35547,19.11329c-0.28906,10 5.10156,19.13671 9.75781,27.98046c1,1.65235 1.66797,3.48438 1.96875,5.39454c0.07422,1.9375 -0.28906,3.86718 -1.05469,5.64453c-2.63281,7.09375 -7.17187,13.67578 -7.6875,21.22656c-0.15234,0.87891 0.04688,1.78516 0.55469,2.52344c0.51953,0.49218 1.1875,0.79297 1.89844,0.85547c7.96094,1.36718 14.84375,-5.69532 18.73047,-12.78907c4.32812,-7.83203 6.85547,-16.53906 7.38281,-25.47656c0.80469,-15.02734 -4.57422,-29.80859 -4.24219,-44.84766c0.38282,-17.10156 8.09766,-34.3164 3.58203,-50.8125zm0,0"/>
   <path id="svg_451" fill-rule="nonzero" fill="rgb(76.470588%,78.039216%,85.098039%)" d="m430.80859,374.63672l29.23829,0.9375l-4.19532,-21.71094l-22.39843,2.13281l-2.64454,18.64063zm0,0"/>
   <path id="svg_452" fill-rule="nonzero" fill="rgb(29.411765%,29.411765%,35.686275%)" d="m521.40625,323.17578c-1.96875,2.45703 -9.58203,6.88672 -10.32031,8.36328c-0.73828,1.47657 -9.82422,5.90235 -14.4961,6.64063c-4.67578,0.73828 -19.40625,3.9414 -22.11328,5.66015c-1.9375,1.24219 -17.49609,5.16797 -27.71875,7.34375c-2.76953,0.65625 -5.57422,1.16016 -8.39453,1.51563c-4.42187,0.24219 -52.8164,-16.23828 -52.8164,-16.23828l9.32812,-9.59375l0.51563,-0.17578c2.64062,-0.89453 14.83203,-5.01953 21.59765,-6.98438c7.6211,-2.21094 16.46485,-11.3125 16.46485,-11.3125c0,0 13.01562,-4.42969 14.74218,-4.92187c1.72266,-0.4961 -4.42187,-17.21875 -4.42187,-17.21875c0,0 28.25,-3.92578 39.30469,-7.25391c11.05468,-3.32812 36.60937,-2.09766 41.27343,10.94531c4.66797,13.03907 -0.94922,30.77344 -2.94531,33.23047zm0,0"/>
   <path id="svg_453" fill-rule="nonzero" fill="rgb(90.588235%,78.039216%,79.215686%)" d="m392.66406,364.75c0,0 -5.64453,5.90234 -11.29687,5.41797c-5.65625,-0.48828 -25.42188,1.47266 -25.42188,1.47266c-3.58203,1.43359 -6.9375,3.3789 -9.95703,5.78125c-4.62109,3.64453 -7.07812,0.73828 -7.53515,0.11718l-0.07813,-0.11718c-2.46094,7.7539 -8.10937,1.84375 -8.10937,1.84375c0,0 2.45703,-23.61719 1.70312,-26.56641c-0.75,-2.95313 4.85547,-8.02344 4.85547,-8.02344l6.63672,-1.6914l16.80469,-4.3086l24.07812,8.35938l8.32031,17.71484zm0,0"/>
   <use x="2" y="11" id="svg_454" mask="url(#mask52)" xlink:href="#surface161"/>
   <use x="2" y="11" id="svg_455" mask="url(#mask53)" xlink:href="#surface164"/>
   <use x="2" y="11" id="svg_456" mask="url(#mask54)" xlink:href="#surface167"/>
   <use x="2" y="11" id="svg_457" mask="url(#mask55)" xlink:href="#surface170"/>
   <use x="2" y="11" id="svg_458" mask="url(#mask56)" xlink:href="#surface173"/>
   <use x="2" y="11" id="svg_459" mask="url(#mask57)" xlink:href="#surface176"/>
   <use x="2" y="11" id="svg_460" mask="url(#mask58)" xlink:href="#surface179"/>
   <path id="svg_461" fill-rule="nonzero" fill="rgb(29.411765%,29.411765%,35.686275%)" d="m355.94531,287.25781c0,0 -11.92578,0.6875 -18.80078,-2.21484c-6.8789,-2.89844 -29.72656,-9.59375 -36.35937,-4.89063c-6.63282,4.69922 -22.60547,8.85547 -15.23438,27.55469c7.3711,18.70313 10.8125,19.19141 10.8125,19.19141c2.28125,1.71094 4.26953,3.77734 5.89453,6.125c2.21094,3.44531 22.84766,11.3125 28.00782,11.3125c5.16015,0 14.24609,0 27.01953,8.85547c12.77343,8.85547 24.32422,9.84375 24.32422,9.84375c0,0 16.21484,6.64453 21.26171,8.12109c5.05079,1.47656 28.1211,7.86719 33.53125,5.90234c5.41016,-1.96093 8.84375,-14.27343 8.84375,-14.27343c0,0 2.45313,-11.07032 1.22266,-12.78907c-1.23047,-1.71875 -8.10547,-1.23046 -10.06641,-3.6914c-1.96093,-2.45703 -13.76171,-5.16406 -13.76171,-5.16406c0,0 -12.74219,-10.58204 -14.21875,-10.58204c-1.47266,0 -5.39454,4.17579 -9.45704,0.98047c-8.08984,-6 -16.58593,-11.42578 -25.43359,-16.23828c-9.33203,-4.92187 -17.58594,-28.04297 -17.58594,-28.04297zm0,0"/>
   <use x="2" y="11" id="svg_462" mask="url(#mask59)" xlink:href="#surface182"/>
   <use x="2" y="11" id="svg_463" mask="url(#mask60)" xlink:href="#surface185"/>
   <path id="svg_464" fill-rule="nonzero" fill="rgb(90.588235%,78.039216%,79.215686%)" d="m509.61328,375.57422l-1.15625,0c-4.16015,-0.14453 -18.24219,-0.58984 -20.95703,0c-3.19141,0.73828 -45.45312,0 -45.45312,0l8.26171,-1.71875c0,0 -3.0664,-10.75781 -1.12109,-11.65234c0,0 -11.05469,-7.29297 -2.71875,-12.21485c8.33594,-4.92187 17.32031,-2.84765 17.32031,-2.84765l20.92578,-7.10157l4.01563,-1.36328c0,0 23.58594,1.23047 29.96875,17.46875c6.38281,16.23438 -9.08594,19.42969 -9.08594,19.42969zm0,0"/>
   <use x="2" y="11" id="svg_465" mask="url(#mask61)" xlink:href="#surface188"/>
   <path id="svg_466" fill-rule="nonzero" fill="rgb(29.411765%,29.411765%,35.686275%)" d="m467.54297,355.15625c0,0.71094 -0.57813,1.28906 -1.29297,1.28906c-0.71094,0 -1.28906,-0.57812 -1.28906,-1.28906c0,-0.71484 0.57812,-1.29297 1.28906,-1.29297c0.71484,0 1.29297,0.57813 1.29297,1.29297zm0,0"/>
   <path id="svg_467" fill-rule="nonzero" fill="rgb(29.411765%,29.411765%,35.686275%)" d="m460.04688,357.28906c0,0.71094 -0.57813,1.28907 -1.28907,1.28907c-0.71484,0 -1.29297,-0.57813 -1.29297,-1.28907c0,-0.71484 0.57813,-1.29297 1.29297,-1.29297c0.71094,0 1.28907,0.57813 1.28907,1.29297zm0,0"/>
   <use x="2" y="11" id="svg_468" mask="url(#mask62)" xlink:href="#surface191"/>
   <use x="2" y="11" id="svg_469" mask="url(#mask63)" xlink:href="#surface194"/>
   <use x="2" y="11" id="svg_470" mask="url(#mask64)" xlink:href="#surface197"/>
   <use x="2" y="11" id="svg_471" mask="url(#mask65)" xlink:href="#surface200"/>
   <use x="2" y="11" id="svg_472" mask="url(#mask66)" xlink:href="#surface203"/>
   <path id="svg_473" fill-rule="nonzero" fill="rgb(83.529412%,83.921569%,85.882353%)" d="m330.14063,160.69141l13.04687,-11.8086c0,0 50.58203,-3.32031 52.67578,13.89453c0,0 17.9336,-20.41015 55.64844,-15.86718l15.95703,12.72265l-44.10547,19.38282l-42.85937,14.88281l-31.56641,-14.14453l-18.79687,-19.0625zm0,0"/>
   <use x="2" y="11" id="svg_474" mask="url(#mask67)" xlink:href="#surface206"/>
   <path id="svg_475" fill-rule="nonzero" fill="rgb(42.352941%,38.823529%,100%)" d="m324.37109,160.69141l5.76954,69.1289l61.17578,3.07813l-2.65235,-68.83594l-0.05468,-1.16016l-64.23829,-2.21093zm0,0"/>
   <use x="2" y="11" id="svg_476" mask="url(#mask68)" xlink:href="#surface209"/>
   <path id="svg_477" fill-rule="nonzero" fill="rgb(42.352941%,38.823529%,100%)" d="m470.26953,159.21484l-63.10547,9.47657l0,69.4375l61.66797,-8.92188l1.4375,-69.99219zm0,0"/>
   <use x="2" y="11" id="svg_478" mask="url(#mask69)" xlink:href="#surface212"/>
   <path id="svg_479" fill-rule="nonzero" fill="rgb(74.509804%,43.529412%,44.705882%)" d="m333.45703,266.83594l3.47266,9.35156c0,0 5.16015,4.42969 10.80469,2.21484c5.64453,-2.21484 10.57031,-3.3125 13.02343,-5.46875c2.45313,-2.15625 5.89844,-12.98046 5.89844,-12.98046c0,0 3.44141,-11.8086 6.875,-14.76172c3.43359,-2.95313 12.53125,-43.625 0,-39.64453c-12.53125,3.97656 -22.11328,40.8789 -22.11328,40.8789c0,0 -2.21094,2.69922 -5.40234,2.94922c-3.19141,0.25391 -9.58204,-0.49219 -10.8125,2.21484c-1.23047,2.71094 -5.42969,9.83985 -1.7461,15.2461zm0,0"/>
   <use x="2" y="11" id="svg_480" mask="url(#mask70)" xlink:href="#surface215"/>
   <path id="svg_481" fill-rule="nonzero" fill="rgb(42.352941%,38.823529%,100%)" d="m407.16406,168.68359c-6.55468,1.47657 -13.41797,-0.23437 -18.50781,-4.62109l2.66016,68.82813c0,0 6.26562,6.78906 15.84765,5.23828l0,-69.44532zm0,0"/>
   <use x="2" y="11" id="svg_482" mask="url(#mask71)" xlink:href="#surface218"/>
   <use x="2" y="11" id="svg_483" mask="url(#mask72)" xlink:href="#surface221"/>
   <use x="2" y="11" id="svg_484" mask="url(#mask73)" xlink:href="#surface224"/>
   <use x="2" y="11" id="svg_485" mask="url(#mask74)" xlink:href="#surface227"/>
   <use x="2" y="11" id="svg_486" mask="url(#mask75)" xlink:href="#surface230"/>
   <use x="2" y="11" id="svg_487" mask="url(#mask76)" xlink:href="#surface233"/>
   <path id="svg_488" fill-rule="nonzero" fill="rgb(74.509804%,43.529412%,44.705882%)" d="m463.9375,265.52344l-3.43359,9.375c0,0 -5.16016,4.42578 -10.8125,2.21094c-5.65625,-2.21094 -10.5625,-3.3125 -13.02344,-5.46875c-2.46484,-2.15235 -5.89844,-12.98047 -5.89844,-12.98047c0,0 -3.43359,-11.8086 -6.875,-14.76172c-3.4414,-2.94922 -12.53125,-43.6211 0,-39.64453c12.52735,3.98047 22.10938,40.8789 22.10938,40.8789c0,0 2.21093,2.69922 5.40234,2.95313c3.19141,0.25 9.58203,-0.4961 10.8125,2.21484c1.23047,2.70703 5.40234,9.83594 1.71875,15.22266zm0,0"/>
   <use x="2" y="11" id="svg_489" mask="url(#mask77)" xlink:href="#surface236"/>
   <path id="svg_490" fill-rule="nonzero" fill="rgb(74.509804%,43.529412%,44.705882%)" d="m431.11719,83.96484c0,18.21094 -14.74219,32.96875 -32.92578,32.96875c-18.1836,0 -32.92188,-14.75781 -32.92188,-32.96875c0,-18.20703 14.73828,-32.96484 32.92188,-32.96484c18.18359,0 32.92578,14.75781 32.92578,32.96484zm0,0"/>
   <path id="svg_491" fill-rule="nonzero" fill="rgb(24.313725%,21.568627%,22.745098%)" d="m377.51953,75.11719c3.99219,-0.625 7.4961,-2.94922 11.3125,-4.28516c8.54297,-3.0039 17.99219,-0.94531 26.63672,1.76172c3.31641,1.03906 6.68359,2.21484 10.16406,2.21484c3.48047,0 7.17188,-1.42578 8.94922,-4.42968c1.63672,-2.75782 1.31641,-6.34375 -0.05859,-9.2461c-1.37891,-2.89843 -3.6875,-5.23437 -6.01563,-7.43359c-7.66406,-7.24609 -17.17187,-14.01953 -27.6914,-13.28125c-4.23047,0.30078 -8.27735,1.81641 -12.16797,3.48828c-4.90235,2.11719 -9.67188,4.51953 -14.28516,7.20313c-3.54297,2.05859 -10.11328,4.8125 -12.15234,8.57812c-4.64453,8.48047 8.08594,16.56641 15.30859,15.42969zm0,0"/>
   <use x="2" y="11" id="svg_492" mask="url(#mask78)" xlink:href="#surface239"/>
   <path id="svg_493" fill-rule="nonzero" fill="rgb(42.352941%,38.823529%,100%)" d="m578.76953,494.24219c0,0 4.3711,5.72265 -2.01953,14.36328c-6.39062,8.64062 -11.65234,15.93359 -9.53125,21.32031c0,0 9.64063,-16.04297 17.48438,-16.27344c7.83984,-0.22656 2.67968,-9.76171 -5.9336,-19.41015zm0,0"/>
   <use x="-121" y="38" id="svg_494" mask="url(#mask79)" xlink:href="#surface242"/>
   <path id="svg_495" fill-rule="nonzero" fill="rgb(100%,81.568627%,21.568627%)" d="m586.875,501.53516c0,2.01562 -0.22656,3.64453 -0.5,3.64453c-0.27344,0 -0.50781,-1.62891 -0.50781,-3.64453c0,-2.01563 0.27734,-1.0625 0.55859,-1.0625c0.28125,0 0.44922,-0.95313 0.44922,1.0625zm0,0"/>
   <path id="svg_496" fill-rule="nonzero" fill="rgb(100%,81.568627%,21.568627%)" d="m589.66797,503.94141c-1.76172,0.95703 -3.30078,1.54297 -3.43359,1.29687c-0.13282,-0.24219 1.1875,-1.22265 2.94921,-2.21094c1.76172,-0.99218 1.06641,-0.26562 1.19922,0c0.13282,0.26563 1.05469,-0.05468 -0.71484,0.91407zm0,0"/>
   <path id="svg_497" fill-rule="nonzero" fill="rgb(42.352941%,38.823529%,100%)" d="m555.66797,494.24219c0,0 -4.37109,5.72265 2.01953,14.36328c6.39063,8.64062 11.65234,15.93359 9.52344,21.32031c0,0 -9.63281,-16.04297 -17.48438,-16.27344c-7.84765,-0.22656 -2.65234,-9.76171 5.94141,-19.41015zm0,0"/>
   <use x="-121" y="38" id="svg_498" mask="url(#mask80)" xlink:href="#surface245"/>
   <path id="svg_499" fill-rule="nonzero" fill="rgb(100%,81.568627%,21.568627%)" d="m547.54688,501.53516c0,2.01562 0.22265,3.64453 0.5,3.64453c0.28125,0 0.50781,-1.62891 0.50781,-3.64453c0,-2.01563 -0.28516,-1.0625 -0.5586,-1.0625c-0.27343,0 -0.44921,-0.95313 -0.44921,1.0625zm0,0"/>
   <path id="svg_500" fill-rule="nonzero" fill="rgb(100%,81.568627%,21.568627%)" d="m544.76172,503.94141c1.76172,0.95703 3.30078,1.54297 3.43359,1.29687c0.13282,-0.24219 -1.1875,-1.22265 -2.94922,-2.21094c-1.76171,-0.99218 -1.0664,-0.26562 -1.19921,0c-0.13282,0.26563 -1.05469,-0.05468 0.71484,0.91407zm0,0"/>
   <use x="-121" y="38" id="svg_501" mask="url(#mask81)" xlink:href="#surface248"/>
   <path id="svg_502" fill-rule="nonzero" fill="rgb(39.607843%,38.039216%,49.019608%)" d="m590.73828,522.21484l-0.22265,1.78516l-0.3086,2.52344l-0.125,1.05469l-0.30859,2.52343l-0.13281,1.0586l-0.30469,2.51562l-3.5,28.70703c-0.3086,2.5625 -4.48828,4.5625 -9.53516,4.5625l-18.17187,0c-5.04688,0 -9.21875,-2 -9.53516,-4.5625l-3.5,-28.70703l-0.3125,-2.51562l-0.125,-1.0586l-0.30859,-2.52343l-0.13282,-1.05469l-0.30078,-2.52344l-0.22265,-1.78516c-0.16797,-1.47656 2.08593,-2.67187 4.94531,-2.67187l37.16406,0c2.85156,0 5.11328,1.21875 4.9375,2.67187zm0,0"/>
   <path id="svg_503" fill-rule="nonzero" fill="rgb(61.568627%,61.176471%,70.980392%)" d="m590.51563,524l-0.30079,2.52344l-45.99218,0l-0.3086,-2.52344l46.60157,0zm0,0"/>
   <path id="svg_504" fill-rule="nonzero" fill="rgb(61.568627%,61.176471%,70.980392%)" d="m590.08203,527.57813l-0.30078,2.52343l-45.125,0l-0.30859,-2.52343l45.73437,0zm0,0"/>
   <path id="svg_505" fill-rule="nonzero" fill="rgb(61.568627%,61.176471%,70.980392%)" d="m589.64844,531.16016l-0.3125,2.52343l-44.24219,0l-0.30469,-2.52343l44.85938,0zm0,0"/>
  </g>
 </g>
</svg>