<svg width="350" height="600"   viewBox="0 0 350 600" xmlns="http://www.w3.org/2000/svg">

 <g>
  <title>background</title>
  <rect fill="none" id="canvas_background" height="602" width="352" y="-1" x="-1"/>
 </g>
 <g>
  <title>Layer 1</title>
  <path id="svg_1" fill="#3f3d56" d="m272.42621,454.57371a24.30012,24.30012 0 0 1 9.74324,-30.08516c1.64736,-1.00163 0.14149,-3.59709 -1.51416,-2.59041a27.0077,27.0077 0 0 0 -10.81947,34.18973c0.75686,1.76976 3.34195,0.24315 2.59041,-1.51416l-0.00002,0z"/>
  <path id="svg_2" fill="#3f3d56" d="m273.28437,458.60854c-4.04629,-7.16841 -3.0941,-15.747 -1.63872,-23.4989c1.51929,-8.09231 3.51088,-16.30868 1.78772,-24.539a22.527,22.527 0 0 0 -5.353,-10.73372c-1.31056,-1.42342 -3.42784,0.70229 -2.12132,2.12132c5.0888,5.527 5.67878,13.5448 4.85343,20.66543c-0.9735,8.39864 -3.73258,16.58266 -3.39006,25.117a27.20192,27.20192 0 0 0 3.27155,12.38207a1.50112,1.50112 0 0 0 2.59041,-1.51416l-0.00001,-0.00004z"/>
  <path id="svg_3" fill="#ccc" d="m295,481.5l-51,0a4.50508,4.50508 0 0 1 -4.5,-4.5l0,-14.98047a14.53617,14.53617 0 0 1 14.51982,-14.51953l7.48023,0a1.50164,1.50164 0 0 0 1.5,-1.5l0,-7a2.50294,2.50294 0 0 1 2.5,-2.5l8,0a2.50294,2.50294 0 0 1 2.5,2.5l0,7a1.50164,1.50164 0 0 0 1.5,1.5l7.48022,0a14.53618,14.53618 0 0 1 14.51978,14.51953l0,14.98047a4.50508,4.50508 0 0 1 -4.50005,4.5z"/>
  <path id="svg_4" fill="#6c63ff" d="m270.28387,391.53959c1.07377,5.69871 -0.25563,10.73293 -2.9693,11.24425s-5.784,-3.69389 -6.85778,-9.3926s2.22864,-15.17508 2.22864,-15.17508s6.52466,7.62472 7.59844,13.32343z"/>
  <path id="svg_5" fill="#6c63ff" d="m290.87742,418.052c-3.40041,4.69739 -7.97031,7.19273 -10.20717,5.57349s-1.2936,-6.73989 2.10681,-11.43729s12.55268,-8.81363 12.55268,-8.81363s-1.05192,9.98001 -4.45232,14.67743z"/>
  <path id="svg_6" fill="#3f3d56" d="m178.42621,94.57371a24.30012,24.30012 0 0 1 9.74324,-30.08516c1.64736,-1.00163 0.14149,-3.59709 -1.51416,-2.59041a27.0077,27.0077 0 0 0 -10.81947,34.18973c0.75686,1.76976 3.34195,0.24315 2.59041,-1.51416l-0.00002,0z"/>
  <path id="svg_7" fill="#3f3d56" d="m179.28437,98.60854c-4.04629,-7.16841 -3.0941,-15.747 -1.63872,-23.4989c1.51929,-8.09231 3.51088,-16.30868 1.78772,-24.539a22.527,22.527 0 0 0 -5.353,-10.73372c-1.31056,-1.42342 -3.42784,0.70229 -2.12132,2.12132c5.0888,5.527 5.67878,13.5448 4.85343,20.66543c-0.9735,8.39864 -3.73258,16.58266 -3.39006,25.117a27.20192,27.20192 0 0 0 3.27155,12.38207a1.50112,1.50112 0 0 0 2.59041,-1.51416l-0.00001,-0.00004z"/>
  <path id="svg_8" fill="#ccc" d="m201,121.5l-51,0a4.505,4.505 0 0 1 -4.5,-4.5l0,-14.98047a14.53623,14.53623 0 0 1 14.51965,-14.51953l7.48035,0a1.50164,1.50164 0 0 0 1.5,-1.5l0,-7a2.50286,2.50286 0 0 1 2.5,-2.5l8,0a2.50286,2.50286 0 0 1 2.5,2.5l0,7a1.50164,1.50164 0 0 0 1.5,1.5l7.48035,0a14.53623,14.53623 0 0 1 14.51965,14.51953l0,14.98047a4.505,4.505 0 0 1 -4.5,4.5z"/>
  <path id="svg_9" fill="#6c63ff" d="m176.28387,31.53959c1.07377,5.69871 -0.25563,10.73293 -2.9693,11.24425s-5.784,-3.69389 -6.85778,-9.3926s2.22864,-15.17508 2.22864,-15.17508s6.52466,7.62472 7.59844,13.32343z"/>
  <path id="svg_10" fill="#6c63ff" d="m196.87742,58.052c-3.40041,4.69739 -7.97031,7.19273 -10.20717,5.57349s-1.2936,-6.73989 2.10681,-11.43729s12.55268,-8.81363 12.55268,-8.81363s-1.05192,9.98001 -4.45232,14.67743z"/>
  <rect id="svg_11" fill="#6c63ff" height="15" width="41" y="276" x="36"/>
  <rect id="svg_12" fill="#6c63ff" height="15" width="41" y="325" x="36"/>
  <path id="svg_13" fill="#3f3d56" d="m327,597l-306,0a17.01909,17.01909 0 0 1 -17,-17l0,-559a17.01909,17.01909 0 0 1 17,-17l306,0a17.01917,17.01917 0 0 1 17,17l0,559a17.01917,17.01917 0 0 1 -17,17zm-306,-591a15.017,15.017 0 0 0 -15,15l0,559a15.017,15.017 0 0 0 15,15l306,0a15.017,15.017 0 0 0 15,-15l0,-559a15.017,15.017 0 0 0 -15,-15l-306,0z"/>
  <rect id="svg_14" fill="#3f3d56" height="2" width="338" y="119.45264" x="5"/>
  <rect id="svg_15" fill="#3f3d56" height="2" width="338" y="239.48438" x="5"/>
  <rect id="svg_16" fill="#3f3d56" height="2" width="338" y="359.51563" x="5"/>
  <rect id="svg_17" fill="#3f3d56" height="2" width="338" y="479.54736" x="5"/>
  <path id="svg_18" fill="#3f3d56" d="m74,362l-34,0a5.0058,5.0058 0 0 1 -5,-5l0,-97a5.0058,5.0058 0 0 1 5,-5l34,0a5.0058,5.0058 0 0 1 5,5l0,97a5.0058,5.0058 0 0 1 -5,5zm-34,-105a3.00335,3.00335 0 0 0 -3,3l0,97a3.00335,3.00335 0 0 0 3,3l34,0a3.00336,3.00336 0 0 0 3,-3l0,-97a3.00336,3.00336 0 0 0 -3,-3l-34,0z"/>
  <rect id="svg_19" fill="#6c63ff" height="15" width="41" y="276" x="99"/>
  <rect id="svg_20" fill="#6c63ff" height="15" width="41" y="325" x="99"/>
  <path id="svg_21" fill="#3f3d56" d="m137,362l-34,0a5.0058,5.0058 0 0 1 -5,-5l0,-97a5.0058,5.0058 0 0 1 5,-5l34,0a5.0058,5.0058 0 0 1 5,5l0,97a5.0058,5.0058 0 0 1 -5,5zm-34,-105a3.00335,3.00335 0 0 0 -3,3l0,97a3.00335,3.00335 0 0 0 3,3l34,0a3.00336,3.00336 0 0 0 3,-3l0,-97a3.00336,3.00336 0 0 0 -3,-3l-34,0z"/>
  <rect id="svg_22" fill="#6c63ff" height="15" width="41" y="155" x="199"/>
  <rect id="svg_23" fill="#6c63ff" height="15" width="41" y="204" x="199"/>
  <path id="svg_24" fill="#3f3d56" d="m237,241l-34,0a5.0058,5.0058 0 0 1 -5,-5l0,-97a5.0058,5.0058 0 0 1 5,-5l34,0a5.00573,5.00573 0 0 1 5,5l0,97a5.00573,5.00573 0 0 1 -5,5zm-34,-105a3.00335,3.00335 0 0 0 -3,3l0,97a3.00335,3.00335 0 0 0 3,3l34,0a3.00328,3.00328 0 0 0 3,-3l0,-97a3.00328,3.00328 0 0 0 -3,-3l-34,0z"/>
  <rect id="svg_25" fill="#6c63ff" height="15" width="41" y="155" x="262"/>
  <rect id="svg_26" fill="#6c63ff" height="15" width="41" y="204" x="262"/>
  <path id="svg_27" fill="#3f3d56" d="m300,241l-34,0a5.00573,5.00573 0 0 1 -5,-5l0,-97a5.00573,5.00573 0 0 1 5,-5l34,0a5.00573,5.00573 0 0 1 5,5l0,97a5.00573,5.00573 0 0 1 -5,5zm-34,-105a3.00328,3.00328 0 0 0 -3,3l0,97a3.00328,3.00328 0 0 0 3,3l34,0a3.00328,3.00328 0 0 0 3,-3l0,-97a3.00328,3.00328 0 0 0 -3,-3l-34,0z"/>
  <rect id="svg_28" fill="#6c63ff" transform="rotate(-20.594680786132812 -352.89697265625006,19.51815986633299) " height="15" width="41" y="442.29173" x="27.50829"/>
  <rect id="svg_29" fill="#6c63ff" transform="rotate(-20.594680786132812 -367.9299316406251,28.512359619140636) " height="15" width="41" y="497.15445" x="29.71132"/>
  <path id="svg_30" fill="#3f3d56" d="m184.14392,360.88281a5.009,5.009 0 0 1 -4.67786,-3.24414l-34.12024,-90.80078a5.00607,5.00607 0 0 1 2.92151,-6.439l31.82739,-11.95948a4.99925,4.99925 0 0 1 6.43921,2.92188l34.12024,90.80078a5.00606,5.00606 0 0 1 -2.92151,6.439l-0.00012,0l-31.82727,11.95948a4.99586,4.99586 0 0 1 -1.76135,0.32226zm-2.2887,-110.76465a3.00572,3.00572 0 0 0 -1.057,0.19336l-31.82715,11.95948a3.00388,3.00388 0 0 0 -1.75305,3.86377l34.12024,90.80078a2.99969,2.99969 0 0 0 3.86352,1.75293l31.82715,-11.95948a3.00388,3.00388 0 0 0 1.75305,-3.86377l-34.12024,-90.80078a3.00565,3.00565 0 0 0 -2.80652,-1.94629z"/>
  <rect id="svg_31" fill="#6c63ff" transform="rotate(-20.594680786132812 -319.85742187499994,-36.62902069091808) " height="15" width="41" y="267.14455" x="-77.45216"/>
  <rect id="svg_32" fill="#6c63ff" transform="rotate(-20.594680786132812 -334.890380859375,-27.634830474853526) " height="15" width="41" y="322.00726" x="-75.24913"/>
  <path id="svg_33" fill="#3f3d56" d="m46.14392,241.88281a5.009,5.009 0 0 1 -4.67786,-3.24414l-34.12024,-90.80078a5.00607,5.00607 0 0 1 2.92151,-6.439l31.82739,-11.95948a4.99925,4.99925 0 0 1 6.43921,2.92188l34.12024,90.80078a5.00606,5.00606 0 0 1 -2.92151,6.439l-0.00012,0l-31.82727,11.95948a4.99586,4.99586 0 0 1 -1.76135,0.32226zm-2.2887,-110.76465a3.00572,3.00572 0 0 0 -1.057,0.19336l-31.82715,11.95948a3.00388,3.00388 0 0 0 -1.75305,3.86377l34.12024,90.80078a2.99969,2.99969 0 0 0 3.86352,1.75293l31.82715,-11.95948a3.00388,3.00388 0 0 0 1.75305,-3.86377l-34.12024,-90.80078a3.00565,3.00565 0 0 0 -2.80652,-1.94629z"/>
 </g>
</svg>