<?xml version="1.0" encoding="UTF-8"?>
<svg xmlns="http://www.w3.org/2000/svg" xmlns:xlink="http://www.w3.org/1999/xlink" width="100pt" height="100pt" viewBox="0 0 100 100" version="1.1">
<defs>
<filter id="alpha" filterUnits="objectBoundingBox" x="0%" y="0%" width="100%" height="100%">
  <feColorMatrix type="matrix" in="SourceGraphic" values="0 0 0 0 1 0 0 0 0 1 0 0 0 0 1 0 0 0 1 0"/>
</filter>
<mask id="mask0">
  <g filter="url(#alpha)">
<rect x="0" y="0" width="100" height="100" style="fill:rgb(0%,0%,0%);fill-opacity:0.301961;stroke:none;"/>
  </g>
</mask>
<clipPath id="clip1">
  <rect x="0" y="0" width="100" height="100"/>
</clipPath>
<g id="surface5" clip-path="url(#clip1)">
<path style=" stroke:none;fill-rule:nonzero;fill:rgb(42.352941%,38.823529%,100%);fill-opacity:1;" d="M 91.269531 55.597656 C 91.269531 77.410156 73.5 95.09375 51.578125 95.09375 C 29.65625 95.09375 11.882812 77.410156 11.882812 55.597656 C 11.882812 33.785156 29.65625 16.105469 51.578125 16.105469 C 73.5 16.105469 91.269531 33.785156 91.269531 55.597656 Z M 91.269531 55.597656 "/>
</g>
<mask id="mask1">
  <g filter="url(#alpha)">
<rect x="0" y="0" width="100" height="100" style="fill:rgb(0%,0%,0%);fill-opacity:0.101961;stroke:none;"/>
  </g>
</mask>
<clipPath id="clip2">
  <rect x="0" y="0" width="100" height="100"/>
</clipPath>
<g id="surface8" clip-path="url(#clip2)">
<path style=" stroke:none;fill-rule:nonzero;fill:rgb(0%,0%,0%);fill-opacity:1;" d="M 35.277344 5.351562 L 8.847656 37.257812 L 47.960938 83.191406 L 74.039062 52.6875 Z M 35.277344 5.351562 "/>
</g>
</defs>
<g id="surface1">
<use xlink:href="#surface5" mask="url(#mask0)"/>
<path style=" stroke:none;fill-rule:nonzero;fill:rgb(42.352941%,38.823529%,100%);fill-opacity:1;" d="M 35.277344 5.351562 L 8.847656 37.257812 L 47.960938 83.191406 L 74.039062 52.6875 Z M 35.277344 5.351562 "/>
<use xlink:href="#surface8" mask="url(#mask1)"/>
<path style=" stroke:none;fill-rule:nonzero;fill:rgb(94.901961%,94.901961%,94.901961%);fill-opacity:1;" d="M 9.90625 37.609375 C 10.488281 36.5625 11.214844 35.601562 12.058594 34.746094 L 36.332031 10.261719 C 36.332031 10.261719 44.789062 8.859375 46.550781 13.066406 L 15.542969 38.3125 Z M 9.90625 37.609375 "/>
<path style=" stroke:none;fill-rule:nonzero;fill:rgb(42.352941%,38.823529%,100%);fill-opacity:1;" d="M 8.671875 37.085938 L 44.613281 91.78125 C 44.613281 91.78125 48.136719 94.234375 51.660156 92.832031 L 88.484375 68.113281 L 49.371094 9.210938 L 14.132812 36.558594 Z M 8.671875 37.085938 "/>
<path style=" stroke:none;fill-rule:nonzero;fill:rgb(24.705882%,23.921569%,33.72549%);fill-opacity:1;" d="M 22.421875 33.871094 L 44.976562 17.746094 L 45.308594 18.207031 L 22.757812 34.332031 Z M 22.421875 33.871094 "/>
<path style=" stroke:none;fill-rule:nonzero;fill:rgb(24.705882%,23.921569%,33.72549%);fill-opacity:1;" d="M 21.648438 40.222656 L 22.125 39.90625 L 51.722656 84.4375 L 51.246094 84.75 Z M 21.648438 40.222656 "/>
<path style=" stroke:none;fill-rule:nonzero;fill:rgb(24.705882%,23.921569%,33.72549%);fill-opacity:1;" d="M 54.84375 85.769531 L 78.800781 68.234375 L 79.136719 68.691406 L 55.179688 86.230469 Z M 54.84375 85.769531 "/>
<path style=" stroke:none;fill-rule:nonzero;fill:rgb(24.705882%,23.921569%,33.72549%);fill-opacity:1;" d="M 48.785156 18.839844 L 49.253906 18.515625 L 79.910156 62.34375 L 79.441406 62.667969 Z M 48.785156 18.839844 "/>
<path style=" stroke:none;fill-rule:nonzero;fill:rgb(24.705882%,23.921569%,33.72549%);fill-opacity:1;" d="M 11.902344 35.378906 L 39.785156 9.914062 L 40.023438 10.171875 L 12.136719 35.636719 Z M 11.902344 35.378906 "/>
<path style=" stroke:none;fill-rule:nonzero;fill:rgb(24.705882%,23.921569%,33.72549%);fill-opacity:1;" d="M 12.964844 35.730469 L 42.105469 10.132812 L 42.339844 10.394531 L 13.199219 35.996094 Z M 12.964844 35.730469 "/>
<path style=" stroke:none;fill-rule:nonzero;fill:rgb(24.705882%,23.921569%,33.72549%);fill-opacity:1;" d="M 13.675781 35.734375 L 43.929688 10.644531 L 44.15625 10.914062 L 13.902344 36.003906 Z M 13.675781 35.734375 "/>
</g>
</svg>
